<svg xmlns="http://www.w3.org/2000/svg" width="250" height="96.772"><g fill="#f4bd27"><path d="M22.283 96.206L.5 80.936V.5l21.917 6.714v54.082L1.136 80.267l51.94-27.326-14.4-6.513-9.745-21.13 48.137 14.75v23.525z"/><g style="line-height:125%" font-size="40" font-weight="400" letter-spacing="0" word-spacing="0" font-family="Segoe UI"><path d="M112.434 71.135h-.16v5.906h-6.543V16.553l6.544 1.949v24.863h.16c3.218-5.426 7.926-8.139 14.124-8.139 5.24 0 9.343 1.829 12.309 5.486 2.965 3.658 4.448 8.559 4.448 14.703 0 6.836-1.662 12.309-4.987 16.419-3.325 4.11-7.873 6.164-13.646 6.164-5.4 0-9.482-2.287-12.249-6.863zm-.16-16.478v5.706c0 3.378 1.098 6.244 3.292 8.598 2.195 2.354 4.981 3.531 8.36 3.531 3.963 0 7.068-1.516 9.316-4.549 2.248-3.032 3.371-7.248 3.371-12.648 0-4.548-1.05-8.112-3.152-10.693-2.101-2.58-4.947-3.87-8.538-3.87-3.804 0-6.863 1.323-9.177 3.97-2.314 2.647-3.471 5.965-3.471 9.955zM155.225 26.853c-1.17 0-2.168-.4-2.992-1.197-.825-.798-1.237-1.809-1.237-3.033 0-1.223.412-2.24 1.237-3.052.824-.811 1.822-1.217 2.992-1.217 1.197 0 2.214.406 3.052 1.217.838.812 1.257 1.829 1.257 3.052 0 1.17-.419 2.168-1.257 2.993-.838.825-1.855 1.237-3.052 1.237zm3.192 50.188h-6.543V36.184h6.543zM203.207 77.04h-6.543v-23.3c0-8.672-3.165-13.008-9.496-13.008-3.272 0-5.978 1.23-8.12 3.69-2.14 2.461-3.212 5.567-3.212 9.317v23.302h-6.543V36.184h6.543v6.782h.16c3.086-5.16 7.554-7.74 13.406-7.74 4.469 0 7.887 1.443 10.254 4.33 2.368 2.885 3.551 7.055 3.551 12.508zM249.5 73.769c0 15.002-7.182 22.503-21.546 22.503-5.054 0-9.47-.958-13.246-2.873l1.788-5.86c4.002 1.975 7.689 3.08 11.362 3.08 9.722 0 15.098-5.28 15.099-15.972v-4.47h-.16c-3.112 5.214-7.794 7.821-14.045 7.821-5.08 0-9.17-1.815-12.269-5.446s-4.782-8.572-4.782-14.69c0-6.943 1.803-12.395 5.141-16.492 3.339-4.096 8.002-6.262 13.8-6.263 5.507 0 9.495 1.995 12.155 6.41h.16v-5.333h6.543zm-6.543-15.202v-6.025c0-6.434-5.254-11.81-11.492-11.81-9.471 0-12.86 8.619-12.927 16.758 0 7.772 3.95 14.7 12.01 14.7 8.072 0 12.33-6.373 12.409-13.623z" style="-inkscape-font-specification:Segoe UI"/></g></g></svg>