<svg xmlns="http://www.w3.org/2000/svg" xmlns:xlink="http://www.w3.org/1999/xlink" width="404.544" height="404.544" viewBox="0 0 107.035 107.031"><defs><linearGradient id="f" x1="6.2" x2="6.2" y2="44.542" gradientTransform="scale(2.0671)" gradientUnits="userSpaceOnUse" xlink:href="#a"/><linearGradient id="a"><stop stop-color="#fff" offset="0"/><stop stop-color="#090909" offset="1"/></linearGradient><linearGradient id="e" x1="6.668" x2="27.073" y1="50.251" y2="29.846" gradientTransform="scale(2.0671)" gradientUnits="userSpaceOnUse" xlink:href="#a"/><linearGradient id="d" x1="6.2" x2="6.2" y1="44.997" y2=".784" gradientTransform="scale(2.0671)" gradientUnits="userSpaceOnUse"><stop stop-color="#ccc" offset="0"/><stop stop-color="#fff" offset="1"/></linearGradient><linearGradient id="c" x1="3.943" x2="30.845" y1="48.375" y2="32.843" gradientTransform="scale(2.0671)" gradientUnits="userSpaceOnUse"><stop stop-color="#fff" offset="0"/><stop stop-color="#ccc" offset="1"/></linearGradient><linearGradient id="b" x1="19.624" x2="34.617" y1="15.022" y2="40.99" gradientTransform="scale(2.0671)" gradientUnits="userSpaceOnUse"><stop stop-color="#e9e9e9" offset="0"/><stop stop-color="#fff" offset="1"/></linearGradient></defs><path d="M72.94 68.715c0 1.063-.058 2.119-.174 3.16a28.755 28.755 0 01-7.57 16.529c.522-.58.99-1.201 1.404-1.865.319-.506.6-1.034.84-1.583a5.44 5.44 0 00.231-.556 5.24 5.24 0 00.203-.556c.064-.174.122-.354.173-.536.05-.188.101-.376.145-.564.008-.02.014-.044.023-.064.043-.188.078-.376.115-.565.038-.194.073-.39.102-.585v-.014c.029-.18.05-.362.064-.55a12.9 12.9 0 00-1.784-7.975 11.662 11.662 0 00-.889-1.302 12.343 12.343 0 00-1.244-1.38 12.946 12.946 0 00-3.853-2.582 12.17 12.17 0 00-1.937-.666c-.006 0-.023-.006-.03-.006l-.237-.083-3.37-1.157v-.009l-8.813-3.03c-.029-.008-.066-.008-.087-.014l-.55-.203a8.176 8.176 0 01-4.156-3.65l-3.217-8.206-3.687-9.4-.71-1.814-.18-.368a4.15 4.15 0 01-.31-1.584c0-.144 0-.289.015-.42a4.116 4.116 0 015.69-3.362l16.428 8.423 3.239 1.656a28.352 28.352 0 014.77 3.572c5.292 4.86 8.763 11.669 9.284 19.284.043.673.072 1.345.072 2.025z" fill="url(#b)" transform="matrix(1.01445 0 0 .99735 15.994 .281)"/><path d="M68.55 79.677c0 .84-.08 1.65-.223 2.437-.044.209-.087.42-.137.628-.095.377-.194.738-.318 1.1-.064.188-.13.376-.203.556-.072.188-.15.368-.231.556-.238.55-.521 1.077-.84 1.584a12.906 12.906 0 01-1.403 1.864c-2.393 2.646-10.52 7.367-13.516 9.283l-6.648 4.064c-4.871 3.002-9.479 5.126-15.283 5.271-.275.008-.542.015-.81.015-.377 0-.745-.008-1.115-.023-9.833-.376-18.407-5.653-23.354-13.454A28.531 28.531 0 01.203 81.505C1.265 87.514 6.5 92.068 12.812 92.068c2.212 0 4.287-.556 6.102-1.54.014-.006.029-.015.043-.02l.651-.391 2.646-1.563 3.37-1.995v-.093l.433-.26L56.2 68.346l2.322-1.374.231.079c.008 0 .023.006.03.006.665.165 1.316.39 1.936.665a12.918 12.918 0 013.853 2.582c.448.426.86.89 1.244 1.381.325.411.623.846.89 1.302a12.957 12.957 0 011.845 6.691z" fill="url(#c)" transform="matrix(1.01445 0 0 .99735 15.994 .281)"/><path d="M25.63 20.078l-.01 66.479-3.37 1.996-2.648 1.561-.653.395c-.01 0-.029.01-.039.02a12.842 12.842 0 01-6.106 1.543c-6.315 0-11.54-4.556-12.61-10.563a12.108 12.108 0 01-.117-.84 28.282 28.282 0 01-.079-1.562V4.29A4.29 4.29 0 016.69.732L19.8 9.298c.069.06.15.11.228.157a12.83 12.83 0 015.602 10.623z" fill="url(#d)" transform="matrix(1.01445 0 0 .99735 15.994 .281)"/><path d="M68.55 79.677c0 .84-.08 1.65-.223 2.437-.044.209-.087.42-.137.628-.095.377-.194.738-.318 1.1-.064.188-.13.376-.203.556-.072.188-.15.368-.231.556-.238.55-.521 1.077-.84 1.584a12.906 12.906 0 01-1.403 1.864c-2.393 2.646-10.52 7.367-13.516 9.283l-6.648 4.064c-4.871 3.002-9.479 5.126-15.283 5.271a27.756 27.756 0 01-1.925-.006c-9.833-.376-18.407-5.653-23.354-13.454A28.531 28.531 0 01.203 81.507C1.265 87.516 6.5 92.07 12.812 92.07c2.212 0 4.287-.556 6.102-1.54.014-.006.029-.015.043-.02l.651-.391 2.646-1.563 3.37-1.995v-.095l.433-.26L56.2 68.346l2.322-1.374.231.079c.006 0 .023.006.03.006.665.165 1.316.39 1.936.665a12.917 12.917 0 013.853 2.582c.448.426.86.889 1.244 1.381.325.411.623.845.89 1.302a12.957 12.957 0 011.845 6.691z" fill="url(#e)" opacity=".08" transform="matrix(1.01445 0 0 .99735 15.994 .281)"/><path d="M25.63 20.078l-.01 66.479-3.37 1.996-2.648 1.561-.653.395c-.01 0-.029.01-.039.02a12.842 12.842 0 01-6.106 1.543c-6.315 0-11.54-4.556-12.61-10.563a12.108 12.108 0 01-.117-.84 28.282 28.282 0 01-.079-1.562V4.29A4.29 4.29 0 016.69.732L19.8 9.298c.069.06.15.11.228.157a12.83 12.83 0 015.602 10.623z" fill="url(#f)" opacity=".05" transform="matrix(1.01445 0 0 .99735 15.994 .281)"/></svg>