<?xml version="1.0" encoding="UTF-8" standalone="no"?>
<svg
   xmlns:dc="http://purl.org/dc/elements/1.1/"
   xmlns:cc="http://creativecommons.org/ns#"
   xmlns:rdf="http://www.w3.org/1999/02/22-rdf-syntax-ns#"
   xmlns:svg="http://www.w3.org/2000/svg"
   xmlns="http://www.w3.org/2000/svg"
   xmlns:xlink="http://www.w3.org/1999/xlink"
   xmlns:sodipodi="http://sodipodi.sourceforge.net/DTD/sodipodi-0.dtd"
   xmlns:inkscape="http://www.inkscape.org/namespaces/inkscape"
   width="275.68927"
   height="404.54373"
   version="1.1"
   viewBox="0 0 72.941867 107.03099"
   id="svg40"
   sodipodi:docname="Bing_April_2020.svg"
   inkscape:version="1.0.1 (3bc2e813f5, 2020-09-07)">
  <metadata
     id="metadata44">
    <rdf:RDF>
      <cc:Work
         rdf:about="">
        <dc:format>image/svg+xml</dc:format>
        <dc:type
           rdf:resource="http://purl.org/dc/dcmitype/StillImage" />
      </cc:Work>
    </rdf:RDF>
  </metadata>
  <sodipodi:namedview
     pagecolor="#ffffff"
     bordercolor="#666666"
     borderopacity="1"
     objecttolerance="10"
     gridtolerance="10"
     guidetolerance="10"
     inkscape:pageopacity="0"
     inkscape:pageshadow="2"
     inkscape:window-width="1920"
     inkscape:window-height="1002"
     id="namedview42"
     showgrid="false"
     inkscape:zoom="1.042"
     inkscape:cx="315.26482"
     inkscape:cy="202.26211"
     inkscape:window-x="-8"
     inkscape:window-y="-8"
     inkscape:window-maximized="1"
     inkscape:current-layer="svg40" />
  <defs
     id="defs24">
    <linearGradient
       id="logo_lg6"
       x1="6.1999998"
       x2="6.1999998"
       y2="44.542"
       gradientTransform="scale(2.0671)"
       gradientUnits="userSpaceOnUse"
       xlink:href="#logo_lg4" />
    <linearGradient
       id="logo_lg4">
      <stop
         stop-color="#fff"
         offset="0"
         id="stop3" />
      <stop
         stop-color="#090909"
         offset="1"
         id="stop5" />
    </linearGradient>
    <linearGradient
       id="logo_lg5"
       x1="6.6684999"
       x2="27.073"
       y1="50.250999"
       y2="29.846001"
       gradientTransform="scale(2.0671)"
       gradientUnits="userSpaceOnUse"
       xlink:href="#logo_lg4" />
    <linearGradient
       id="logo_lg3"
       x1="6.1999998"
       x2="6.1999998"
       y1="44.997002"
       y2="0.78439999"
       gradientTransform="scale(2.0671)"
       gradientUnits="userSpaceOnUse">
      <stop
         stop-color="#ccc"
         offset="0"
         id="stop9" />
      <stop
         stop-color="#fff"
         offset="1"
         id="stop11" />
    </linearGradient>
    <linearGradient
       id="logo_lg2"
       x1="3.9433"
       x2="30.844999"
       y1="48.375"
       y2="32.842999"
       gradientTransform="scale(2.0671)"
       gradientUnits="userSpaceOnUse">
      <stop
         stop-color="#fff"
         offset="0"
         id="stop14" />
      <stop
         stop-color="#ccc"
         offset="1"
         id="stop16" />
    </linearGradient>
    <linearGradient
       id="logo_lg1"
       x1="19.624001"
       x2="34.617001"
       y1="15.022"
       y2="40.990002"
       gradientTransform="scale(2.0671)"
       gradientUnits="userSpaceOnUse">
      <stop
         class=""
         stop-color="#e9e9e9"
         offset="0"
         id="stop19" />
      <stop
         stop-color="#fff"
         offset="1"
         id="stop21" />
    </linearGradient>
  </defs>
  <g
     id="g906"
     transform="translate(0.00151,-0.00208773)">
    <path
       d="m 72.94,68.715 c 0,1.0625 -0.0579,2.1187 -0.17363,3.1605 -0.68626,6.3479 -3.4334,12.088 -7.5696,16.528 0.52089,-0.57878 0.99012,-1.201 1.4035,-1.8645 0.31833,-0.50643 0.59945,-1.0335 0.83923,-1.5834 0.0868,-0.17983 0.16536,-0.36793 0.23151,-0.55604 0.0786,-0.17983 0.14469,-0.36793 0.20257,-0.55603 0.0641,-0.17364 0.12195,-0.35347 0.17363,-0.53537 0.0496,-0.1881 0.10128,-0.37621 0.14469,-0.56431 0.008,-0.0207 0.0145,-0.0434 0.0227,-0.0641 0.0434,-0.1881 0.0785,-0.3762 0.11576,-0.5643 0.0372,-0.19431 0.0724,-0.39068 0.10128,-0.58498 v -0.0145 c 0.0289,-0.17984 0.0496,-0.36174 0.0641,-0.54984 0.0434,-0.42582 0.0661,-0.8537 0.0661,-1.2878 0,-2.4433 -0.67179,-4.7356 -1.85,-6.6869 -0.26665,-0.45475 -0.56431,-0.88883 -0.88884,-1.3022 -0.3824,-0.49195 -0.79581,-0.95498 -1.2444,-1.3808 -1.1142,-1.0769 -2.4143,-1.9596 -3.853,-2.5818 -0.62218,-0.27492 -1.2733,-0.49816 -1.9368,-0.6656 -0.006,0 -0.0227,-0.0062 -0.0289,-0.0062 l -0.23771,-0.08268 -3.3693,-1.1575 v -0.0083 l -8.8139,-3.0302 c -0.0289,-0.0083 -0.0661,-0.0083 -0.0868,-0.01447 l -0.54983,-0.20257 c -1.7715,-0.69453 -3.2391,-1.9947 -4.1568,-3.6504 l -3.2163,-8.2062 -3.6876,-9.3989 -0.70901,-1.8149 -0.17983,-0.36794 c -0.20257,-0.49196 -0.31006,-1.0273 -0.31006,-1.5834 0,-0.1447 0,-0.28939 0.0145,-0.41961 0.20877,-2.0671 1.9658,-3.6876 4.0928,-3.6876 0.5643,0 1.1059,0.11576 1.5978,0.32453 l 16.427,8.4233 3.2391,1.6557 c 1.7136,1.0191 3.3114,2.22 4.7708,3.5719 5.2917,4.8597 8.7623,11.669 9.2832,19.284 0.0434,0.67386 0.0724,1.3457 0.0724,2.0257 z"
       fill="url(#logo_lg1)"
       id="path28"
       style="fill:url(#logo_lg1);stroke-width:2.0671" />
    <path
       d="m 68.55,79.677 c 0,0.83923 -0.0806,1.6495 -0.22324,2.4371 -0.0434,0.20877 -0.0868,0.41961 -0.13643,0.62839 -0.0951,0.3762 -0.1943,0.73793 -0.31832,1.0997 -0.0641,0.1881 -0.13023,0.3762 -0.20257,0.55604 -0.0724,0.1881 -0.1509,0.36793 -0.23151,0.55604 -0.23772,0.54983 -0.5209,1.0769 -0.83923,1.5834 -0.41135,0.66559 -0.88264,1.2878 -1.4035,1.8645 -2.3936,2.6458 -10.521,7.367 -13.516,9.2832 l -6.6477,4.0638 c -4.872,3.0014 -9.4795,5.1263 -15.284,5.271 -0.27492,0.008 -0.54157,0.0145 -0.81029,0.0145 -0.3762,0 -0.74414,-0.008 -1.1141,-0.0227 -9.833,-0.37622 -18.407,-5.6534 -23.354,-13.454 -2.2634,-3.5636 -3.76,-7.6564 -4.2664,-12.053 1.0625,6.0089 6.2983,10.563 12.609,10.563 2.2118,0 4.2871,-0.55604 6.102,-1.54 0.0145,-0.006 0.0289,-0.0145 0.0434,-0.0207 l 0.65113,-0.39068 2.6458,-1.5627 3.3693,-1.9947 v -0.093 l 0.43409,-0.26045 30.142,-17.859 2.3213,-1.3746 0.23151,0.07855 c 0.008,0 0.0227,0.0062 0.0289,0.0062 0.66559,0.16536 1.3167,0.39068 1.9368,0.66559 1.4387,0.62219 2.7409,1.5048 3.853,2.5818 0.44855,0.42581 0.85989,0.88883 1.2444,1.3808 0.32452,0.41135 0.62218,0.84543 0.88883,1.3022 1.1741,1.9554 1.8459,4.2457 1.8459,6.6911 z"
       fill="url(#logo_lg2)"
       id="path30"
       style="fill:url(#logo_lg2);stroke-width:2.0671" />
    <path
       d="m 25.63,20.0776 -0.0103,66.479 -3.3693,1.9968 -2.6479,1.5606 -0.65319,0.39481 c -0.0103,0 -0.0289,0.0103 -0.0393,0.0207 -1.8169,0.97772 -3.8923,1.542 -6.1061,1.542 -6.3149,0 -11.54,-4.5558 -12.609,-10.563 -0.0496,-0.27698 -0.0889,-0.56223 -0.11782,-0.83922 -0.0393,-0.52507 -0.0682,-1.0377 -0.0786,-1.5627 v -74.817 c 0,-2.3626 1.9162,-4.2891 4.2892,-4.2891 0.88883,0 1.7198,0.27698 2.4019,0.73174 l 13.111,8.5659 c 0.0682,0.05995 0.14883,0.10956 0.22738,0.1571 3.3879,2.313 5.6017,6.2074 5.6017,10.623 z"
       fill="url(#logo_lg3)"
       id="path32"
       style="fill:url(#logo_lg3);stroke-width:2.0671" />
    <path
       d="m 68.55,79.677 c 0,0.83923 -0.0806,1.6495 -0.22324,2.4371 -0.0434,0.20877 -0.0868,0.41961 -0.13643,0.62839 -0.0951,0.3762 -0.1943,0.73793 -0.31832,1.0997 -0.0641,0.1881 -0.13023,0.3762 -0.20257,0.55604 -0.0724,0.1881 -0.1509,0.36793 -0.23151,0.55604 -0.23772,0.54983 -0.5209,1.0769 -0.83923,1.5834 -0.41135,0.66559 -0.88264,1.2878 -1.4035,1.8645 -2.3936,2.6458 -10.521,7.367 -13.516,9.2832 l -6.6477,4.0638 c -4.872,3.0014 -9.4795,5.1263 -15.284,5.271 -0.27492,0.008 -0.54157,0.0145 -0.81029,0.0145 -0.3762,0 -0.74414,-0.006 -1.1141,-0.0207 -9.833,-0.3762 -18.407,-5.6534 -23.354,-13.454 -2.2634,-3.5636 -3.76,-7.6564 -4.2664,-12.053 1.0625,6.0089 6.2983,10.563 12.609,10.563 2.2118,0 4.2871,-0.55604 6.102,-1.54 0.0145,-0.006 0.0289,-0.0145 0.0434,-0.0207 l 0.65113,-0.39068 2.6458,-1.5627 3.3693,-1.9947 v -0.0951 l 0.43409,-0.26045 30.142,-17.859 2.3213,-1.3746 0.23151,0.07855 c 0.006,0 0.0227,0.0062 0.0289,0.0062 0.66559,0.16536 1.3167,0.39067 1.9368,0.6656 1.4387,0.62218 2.7409,1.5048 3.853,2.5818 0.44855,0.42582 0.85989,0.88884 1.2444,1.3808 0.32452,0.41135 0.62218,0.84543 0.88883,1.3022 1.1741,1.9554 1.8459,4.2457 1.8459,6.6911 z"
       fill="url(#logo_lg5)"
       opacity="0.08"
       id="path34"
       style="fill:url(#logo_lg5);stroke-width:2.0671" />
    <path
       d="m 25.63,20.0776 -0.0103,66.479 -3.3693,1.9968 -2.6479,1.5606 -0.65319,0.39481 c -0.0103,0 -0.0289,0.0103 -0.0393,0.0207 -1.8169,0.97772 -3.8923,1.542 -6.1061,1.542 -6.3149,0 -11.54,-4.5558 -12.609,-10.563 -0.0496,-0.27698 -0.0889,-0.56223 -0.11782,-0.83922 -0.0393,-0.52507 -0.0682,-1.0377 -0.0786,-1.5627 v -74.817 c 0,-2.3626 1.9162,-4.2891 4.2892,-4.2891 0.88883,0 1.7198,0.27698 2.4019,0.73174 l 13.111,8.5659 c 0.0682,0.05995 0.14883,0.10956 0.22738,0.1571 3.3879,2.313 5.6017,6.2074 5.6017,10.623 z"
       fill="url(#logo_lg6)"
       opacity="0.05"
       id="path36"
       style="fill:url(#logo_lg6);stroke-width:2.0671" />
  </g>
</svg>
