<svg height="600" width="600" xmlns="http://www.w3.org/2000/svg"><path d="M599.233 300A299.233 299.233 0 1 0 .767 300a299.233 299.233 0 1 0 598.466 0" fill="#646464" stroke="#646464" stroke-linejoin="round" stroke-width="1.534"/><path d="M365.147 504.819c-13.44-19.35-34.409-49.562-46.598-67.138-12.45-17.95-22.578-31.961-23.111-31.968-.548-.008-20.135 27.153-46.332 64.245-24.96 35.342-45.59 64.259-45.844 64.259-.71 0-89.988-64.869-90.218-65.552-.111-.33 20.072-30.892 44.85-67.916s45.054-67.9 45.054-68.613c0-1.15-8.03-4.058-71.014-25.718-39.057-13.432-71.396-24.576-71.863-24.764-.65-.262 3.068-13.096 15.824-54.617 9.17-29.85 16.881-54.517 17.135-54.815s34.199 10.908 75.434 24.9 75.319 25.443 75.74 25.443.9-.652 1.06-1.447.518-37.013.791-80.483.724-79.4 1.001-79.841c.397-.633 11.98-.802 54.506-.794 29.701.005 54.312.222 54.69.482.477.327 1.291 24.226 2.656 77.903 2.24 88.138 2.288 89.32 3.65 89.32.53 0 33.21-11.285 72.623-25.076s71.855-24.852 72.09-24.579c.796.927 33.123 109.492 32.725 109.903-.217.224-33.112 11.845-73.098 25.824-55.007 19.23-72.751 25.678-72.9 26.492-.11.6 18.806 29.761 42.859 66.07 23.68 35.747 42.969 65.261 42.862 65.587-.244.748-88.848 68.074-89.59 68.074-.3 0-11.542-15.832-24.982-35.181z" fill="#fff"/></svg>