<svg height="600" viewBox="0 0 600.00001 600" width="600" xmlns="http://www.w3.org/2000/svg">
<g transform="translate(0,-452.3622)">
<path d="m599.2332,752.3622a299.2332,299.2332 0 1,0 -598.4664,0 299.2332,299.2332 0 1,0 598.4664,0" fill="#646464" stroke="#646464" stroke-linejoin="round" stroke-width="1.5336"/>
<path d="m365.1472,957.1808c-13.4396-19.3498-34.4088-49.5616-46.5982-67.1373-12.4498-17.9511-22.5784-31.9614-23.1113-31.9685-.5476-.008-20.135,27.1537-46.3314,64.2457-24.9604,35.342-45.5903,64.2583-45.8441,64.2583-.7099,0-89.9882-64.8686-90.218-65.5514-.1112-.3303 20.0716-30.8929 44.8506-67.9168s45.0528-67.8997 45.0528-68.6128c0-1.15-8.0296-4.058-71.0135-25.7182-39.0574-13.4319-71.3959-24.5757-71.8634-24.764-.6502-.2619 3.0683-13.0959 15.8241-54.6161 9.1708-29.8506 16.8815-54.5175 17.135-54.8154s34.199,10.9075 75.4344,24.9008 75.3186,25.4421 75.7403,25.4417 .8988-.6513 1.0601-1.4465 .5171-37.0128.7905-80.4835 .724-79.3992 1.0012-79.841c.3968-.6325 11.98-.8011 54.5059-.7934 29.7011.005 54.3115.2223 54.6897.4819 .4767.3273 1.2915,24.2261 2.6559,77.9034 2.2403,88.1379 2.2886,89.3191 3.6511,89.3191 .5283,0 33.2085-11.2841 72.6226-25.0758s71.8542-24.8522 72.089-24.5788c.7962.9267 33.1237,109.4921 32.7257,109.9027-.2174.2243-33.1117,11.845-73.0985,25.8239-55.0065,19.2296-72.7511,25.6781-72.9,26.4921-.11.6011 18.8061,29.7617 42.859,66.0705 23.6807,35.7469 42.9689,65.261 42.8627,65.5869-.2439.7484-88.8486,68.0739-89.5896,68.0739-.3009,0-11.5431-15.8316-24.9827-35.1814z" fill="#fff"/>
</g>
</svg>
