<?xml version="1.0" encoding="UTF-8" standalone="no"?>
<svg
   xmlns:dc="http://purl.org/dc/elements/1.1/"
   xmlns:cc="http://creativecommons.org/ns#"
   xmlns:rdf="http://www.w3.org/1999/02/22-rdf-syntax-ns#"
   xmlns:svg="http://www.w3.org/2000/svg"
   xmlns="http://www.w3.org/2000/svg"
   version="1.1"
   viewBox="0 0 600.00001 600"
   height="600"
   width="600">
  <g transform="translate(0,-452.36221)">
    <circle
       r="299.23318"
       cy="752.36224"
       cx="300"
       style="fill:#646464;fill-opacity:1;stroke:#646464;stroke-width:1.53364217;stroke-linejoin:round;stroke-miterlimit:4;stroke-dasharray:none;stroke-opacity:1" />
    <path
       d="m 365.14724,957.18081 c -13.43961,-19.34977 -34.40882,-49.56159 -46.59823,-67.13733 -12.44977,-17.95114 -22.57836,-31.9614 -23.1113,-31.96849 -0.54764,-0.008 -20.13505,27.15374 -46.33135,64.2457 -24.96044,35.34204 -45.59029,64.2583 -45.84409,64.2583 -0.70988,0 -89.98819,-64.86862 -90.21798,-65.55143 -0.11118,-0.33029 20.0716,-30.8929 44.85061,-67.91681 24.77901,-37.02392 45.05275,-67.89967 45.05275,-68.61277 0,-1.14995 -8.02964,-4.05796 -71.01347,-25.71823 -39.057407,-13.43193 -71.395946,-24.57572 -71.863418,-24.76397 -0.650218,-0.26185 3.068256,-13.09593 15.824148,-54.61605 9.170754,-29.85057 16.881497,-54.51748 17.13499,-54.81536 0.253486,-0.29789 34.19897,10.90747 75.43439,24.90079 41.23542,13.99331 75.31855,25.44208 75.74029,25.44169 0.42173,-3.8e-4 0.89878,-0.6513 1.0601,-1.4465 0.16133,-0.7952 0.51707,-37.01278 0.79053,-80.48354 0.27347,-43.47075 0.72399,-79.39917 1.00117,-79.84096 0.39685,-0.63253 11.97995,-0.80113 54.50595,-0.79339 29.7011,0.005 54.31145,0.22229 54.68967,0.48194 0.47673,0.32728 1.29148,24.22614 2.65589,77.90337 2.24035,88.13793 2.28863,89.31906 3.65111,89.31906 0.52833,0 33.20851,-11.28412 72.62262,-25.07582 39.41409,-13.79171 71.85415,-24.85217 72.08903,-24.57881 0.79623,0.92673 33.12373,109.49212 32.72571,109.90272 -0.21741,0.22426 -33.11174,11.84503 -73.09851,25.82393 -55.00652,19.22961 -72.75113,25.67806 -72.90003,26.49212 -0.10995,0.60109 18.80612,29.76167 42.85899,66.07047 23.68069,35.74694 42.96892,65.26105 42.86272,65.5869 -0.24393,0.74836 -88.84862,68.07387 -89.58961,68.07387 -0.30086,0 -11.54307,-15.83164 -24.98268,-35.1814 z"
       style="fill:#ffffff" />
  </g>
</svg>
