<svg xmlns="http://www.w3.org/2000/svg" width="2500" height="2500" viewBox="0 0 135.418 135.443"><path fill="none" d="M97.448 56.349c-5.415-.19-6.942 4.356-7.402 8.058a26.792 26.792 0 015.191-.314c3.41.12 6.538.84 9.064 1.964-.02-3.835-.858-9.5-6.853-9.708z"/><path fill="#74bb44" d="M22.714 26.55h12.624a1.308 1.308 0 001.305-1.304c0-.005-.153-10.819-.153-13.823v-.036c0-2.468.517-4.62 1.422-6.427l.43-.809a.265.265 0 00-.144.079L13.687 28.535a.275.275 0 00-.091.144c.507-.25 1.2-.595 1.298-.638 2.132-.964 4.721-1.491 7.82-1.491z"/><path fill="#74bb44" d="M120.87 23.903c-1.003-5.363-4.193-8.006-7.077-9.046-3.109-1.124-9.418-2.29-17.341-3.222-6.377-.753-13.872-.691-18.4-.553C77.51 7.36 74.9 3.96 71.979 2.784 64.2-.346 52.174.41 49.09 1.274c-2.454.687-5.17 2.091-6.679 4.256-1.013 1.448-1.67 3.3-1.675 5.888 0 1.465.041 4.915.079 7.983.035 3.074.078 5.826.078 5.846a4.977 4.977 0 01-4.972 4.97H23.305c-2.69 0-4.748.451-6.319 1.164-1.572.715-2.687 1.678-3.533 2.817-1.684 2.26-1.977 5.052-1.97 7.902 0 0 .024 2.327.584 6.833.468 3.485 4.249 27.84 7.84 35.246 1.392 2.88 2.321 4.084 5.055 5.354 6.095 2.61 20.016 5.514 26.542 6.345 6.512.834 10.6 2.584 13.036-2.523.008-.016.49-1.268 1.148-3.12 2.116-6.407 2.41-12.094 2.41-16.207 0-.42.615-.438.615 0 0 2.905-.557 13.186 7.21 15.942 3.067 1.085 9.425 2.056 15.89 2.814 5.843.674 10.082 2.97 10.082 17.964 0 9.12-1.915 10.369-11.93 10.369-8.118 0-11.213.21-11.213-6.236 0-5.215 5.157-4.667 8.977-4.667 1.708 0 .467-1.268.467-4.487 0-3.202 2.005-5.05.11-5.096-13.212-.366-20.987-.016-20.987 16.51 0 14.999 5.74 17.784 24.495 17.784 14.701 0 19.88-.48 25.953-19.317 1.201-3.718 4.109-15.065 5.864-34.12 1.11-12.045-1.05-48.409-2.761-57.585zm-25.63 40.19a26.94 26.94 0 00-5.192.314c.46-3.702 1.987-8.249 7.402-8.058 5.995.207 6.832 5.873 6.853 9.708-2.526-1.125-5.655-1.844-9.064-1.964z"/></svg>