<svg xmlns="http://www.w3.org/2000/svg" viewBox="0 0 377.953 377.953" width="10cm" height="10cm"><path d="M217.648 34.67a40.212 40.212 0 00-57.432 0L15.849 181.68a42.061 42.061 0 000 58.506l103.027 104.932c7.177 6.344 16.536 10.228 26.82 10.228h86.51a40.323 40.323 0 0028.854-12.19l101.029-102.878a42.024 42.024 0 000-58.505L217.667 34.67zm-3.995 268.534l-14.427 14.65a5.734 5.734 0 01-4.125 1.757h-12.338a5.79 5.79 0 01-3.81-1.48l-14.705-14.945a6.011 6.011 0 010-8.36l20.606-20.976a5.715 5.715 0 018.194 0l20.605 20.994a5.993 5.993 0 010 8.36zm0-88.026l-57.617 58.69a5.771 5.771 0 01-4.125 1.72h-12.319a5.79 5.79 0 01-3.847-1.442L121.077 259.2a6.03 6.03 0 010-8.379l63.795-64.96a5.734 5.734 0 018.194 0l20.605 20.994a5.956 5.956 0 010 8.323zm0-87.97L112.846 229.865a5.734 5.734 0 01-4.143 1.738H96.365a5.752 5.752 0 01-3.828-1.442L77.85 215.178a5.974 5.974 0 010-8.323L184.854 97.872a5.734 5.734 0 018.194 0l20.605 20.976a5.993 5.993 0 010 8.36z" fill="#2ab14c"/></svg>