<svg xmlns="http://www.w3.org/2000/svg" height="36" width="36"><path d="M4.874 35.961l-.26-.088c-.31-.106-.602-.22-.89-.35-.637-.284-1.426-.783-1.74-1.1-.374-.377-1.578-1.579-1.994-2.27 0 0 .062-18.883.053-27.296C.277 3.83.94 2.947 1.445 2.24c.88-.859 2.27-1.974 2.844-2.115 0 0 18.64-.022 26.998-.085 1.224.486 2.265 1.278 3.054 2.01.714.586 1.056 1.448 1.43 2.19.117 9.296.409 18.656.287 26.121-.495 2.733-2.009 4.392-4.294 5.369l-.595.144c-9.045.364-18.437.223-26.295.086zm25.644-1.547c1.1-.11 1.88-.698 2.604-1.275.53-.522 1.266-1.26 1.408-1.862.406-9.075-.007-18.096-.047-26.392-.139-.39-.449-.916-.798-1.354-.823-1.084-2.177-1.62-3.229-2.036-2.418-.168-3.93-.148-5.924-.177 0 3.187.014 6.377-.012 9.563-3.715.055-7.447.063-11.534.11-.007 2.458-.005 4.33-.005 6.978 3.815.028 7.632.063 11.445.15.118 2.873.179 5.703.042 8.548-4.038.074-7.193.115-11.482.184-.003 2.719-.02 4.857.018 7.733 6.118-.112 12.183.068 17.514-.17z"/></svg>