<svg xmlns="http://www.w3.org/2000/svg" xmlns:svg="http://www.w3.org/2000/svg" id="svg4" width="4cm" height="4cm" version="1.1"><metadata id="metadata10"/><path id="path2" d="m 20.459156,150.50396 -1.088839,-0.36854 c -1.298233,-0.4439 -2.521085,-0.92132 -3.727185,-1.46574 -2.667659,-1.18934 -5.9718721,-3.27909 -7.2868557,-4.60663 -1.5662549,-1.57883 -6.6084235,-6.61261 -8.35056832,-9.50641 0,0 0.2596473,-79.079126 0.22195661,-114.311488 C 1.2076195,15.944233 3.9841632,12.246364 6.0990264,9.2855559 9.784332,5.6881953 15.605441,1.0187454 18.009266,0.42825888 c 0,0 78.061474,-0.0921394 113.063514,-0.35596729 5.12591,2.03529331 9.48547,5.35206891 12.78967,8.41757331 2.99014,2.4540791 4.42238,6.0640031 5.98863,9.1713871 0.48998,38.93023 1.71283,78.128476 1.20192,109.390758 -2.073,11.44539 -8.4134,18.39303 -17.98263,22.48455 l -2.49176,0.60305 c -37.879092,1.52437 -77.211347,0.93389 -110.119454,0.36017 z m 107.393164,-6.4786 c 4.60662,-0.46067 7.87315,-2.92312 10.90515,-5.33951 2.21957,-2.18606 5.30182,-5.27668 5.89649,-7.79777 1.70027,-38.00471 -0.0293,-75.783283 -0.19683,-110.525667 -0.58211,-1.633261 -1.88033,-3.836069 -3.3419,-5.670346 -3.4466,-4.539627 -9.11694,-6.7843125 -13.52257,-8.5264573 -10.12621,-0.7035586 -16.45823,-0.6198011 -24.80879,-0.7412492 0,13.3466705 0.0586,26.7059035 -0.0502,40.0483855 -15.557856,0.230332 -31.186904,0.263835 -48.302633,0.460664 -0.02931,10.293728 -0.02093,18.133383 -0.02093,29.222796 15.976634,0.117335 31.961642,0.263835 47.929913,0.628181 0.49415,12.031693 0.74963,23.883298 0.17589,35.797713 -16.910538,0.30991 -30.12319,0.4816 -48.084862,0.77057 -0.01258,11.38676 -0.08376,20.34037 0.07538,32.38463 25.621239,-0.46905 51.020532,0.28476 73.345952,-0.71194 z" style="stroke-width:4.18785"/></svg>