<svg preserveAspectRatio="xMidYMid" viewBox="0 0 256 194" xmlns="http://www.w3.org/2000/svg">
<defs>
<linearGradient id="linearGradient-1" x1=".0039%" x2="100.0322%">
<stop offset="0" stop-opacity=".1"></stop>
<stop offset="100%" stop-opacity=".2"></stop>
</linearGradient>
</defs>
<path d="m238.8339,193.595h-222.6797c-8.6345,0-15.9057-7.044-15.9057-15.9057v-160.8747c0-8.6345 7.0439-15.9057 15.9057-15.9057h222.6797c8.6345,0 15.9057,7.0439 15.9057,15.9057v160.8747c0,8.8617-7.044,15.9057-15.9057,15.9057z" fill="#e3e3e3"></path>
<path d="m32.0599,193.595 95.2069-76.5746 .6817-4.09-98.1608-70.6667-.2272,147.9229 2.4995,3.4084z" fill="#231f20" opacity=".1"></path>
<path d="m16.1542,193.595c-8.8617,0-15.9057-7.044-15.9057-15.9057v-161.1019c0-8.8617 7.0439-10.4523 15.9057-10.4523s15.9057,1.8178 15.9057,10.4523v177.0076h-15.9057z" fill="#d54b3d"></path>
<path d="m16.1542,8.4073c11.3612,0 13.6335,3.4084 13.6335,8.1801v174.7354h-13.6335c-7.4984,0-13.6335-6.1351-13.6335-13.6335v-161.1019c0-4.9989 2.2722-8.1801 13.6335-8.1801zm0-2.2722c-8.8617,0-15.9057,1.8178-15.9057,10.4523v161.1019c0,8.8617 7.0439,15.9057 15.9057,15.9057h15.9057v-177.0076c0-8.8617-7.0439-10.4523-15.9057-10.4523z" fill="#d72b27"></path>
<path d="m238.8339,193.595h-15.9057v-177.4621c0-8.8617 7.0439-9.9979 15.9057-9.9979s15.9057,1.1361 15.9057,9.9979v161.7836c0,8.6345-7.044,15.6785-15.9057,15.6785z" fill="#d54b3d"></path>
<path d="m238.8339,8.4073c10.2251,0 13.6335,2.045 13.6335,7.7256v161.7836c0,7.4984-6.1351,13.6335-13.6335,13.6335h-13.6335v-175.4171c0-5.9078 3.4084-7.7256 13.6335-7.7256zm0-2.2722c-8.8617,0-15.9057,1.1361-15.9057,9.9979v177.6893h15.9057c8.8617,0 15.9057-7.0439 15.9057-15.9057v-161.7836c0-8.8617-7.044-9.9979-15.9057-9.9979z" fill="#d72b27"></path>
<path d="m170.6667,193.595-169.0869-170.4003 8.8938,3.6177 117.7021,84.7546 126.5639-92.8066v159.1561c0,8.6345-7.044,15.6785-15.9057,15.6785h-68.1673z" fill="url(#linearGradient-1)"></path>
<path d="m127.2668,117.0205-120.2016-87.2541c-7.0439-5.2262-9.089-15.224-3.8628-22.268s15.4512-8.6345 22.7224-3.4084l101.5692,73.8479 102.2509-74.7568c7.0439-5.2262 17.0418-3.6356 22.268,3.6356 5.2262,7.0439 3.6356,17.0418-3.6356,22.268l-121.1105,87.9358z" fill="#d54b3d"></path>
<path d="m238.8339,2.2722c4.3173,0 8.4073,2.045 11.134,5.6806 4.3173,6.1351 2.9539,14.5423-2.9539,19.0868l-119.7471,87.2541-118.8382-86.3452c-6.1351-4.5445-7.7256-13.179-3.4084-19.0868 2.4995-3.4084 6.8167-5.6806 11.3612-5.6806 2.9539,0 5.9078.9089 8.1801,2.7267l101.342,73.6206 1.3633.9089 1.3633-.9089 102.0237-74.7568c2.4995-1.5906 5.2262-2.4995 8.1801-2.4995zm0-2.2722c-3.1811,0-6.5895.9089-9.3162,2.9539l-102.2509,74.7568-101.5692-73.8479c-2.7267-2.045-6.1351-2.9539-9.5434-2.9539-4.9989,0-9.9979,2.2722-13.179,6.5895-4.9989,7.0439-2.9539,17.0418 4.09,22.268l120.2016,87.4813 120.8833-88.163c7.0439-5.2262 8.6345-14.9968 3.6356-22.268-3.1811-4.5445-7.9528-6.8167-12.9518-6.8167z" fill="#d72b27"></path>
</svg>
