<svg xmlns="http://www.w3.org/2000/svg" viewBox="0 0 1000 1000"><path d="M933.6 998.5c36.5 0 66.4-29.4 66.4-65.4V266c0-36-29.9-65.4-66.4-65.4H285.5l260.1 797.9h388z" fill="#d9d9d9"/><path fill="#4352b8" d="M716.3 810L546.8 998.5 485.1 810z"/><path d="M937 477v-39H749v-63h-61v63H568v39h238.8c-12.8 45-41 87.5-68.5 120.5-48.8-57.7-49-76.5-49-76.5h-50.7s2.1 28.1 70.5 108.3C686.9 652 670 665.5 670 665.5l15.6 48.7s23.5-20.2 53-51.5c29.5 32 67.6 70.5 116.9 116.4l32-32c-52.8-47.9-91.5-85.9-119.9-116.4 38.1-45.1 76.8-101.8 85-153.8H937z" fill="#617d8b"/><path d="M68.3.2C31.8.2 1.9 30.1 1.9 66.7v677c0 36.5 29.9 66.4 66.4 66.4h648.1L456.3.2h-388z" fill="#4f8bf5"/><path d="M423.9 377.5H282v58.8h81.7c-7.6 37.4-39.5 58.8-81.7 58.8-49.8 0-90-40.2-90-90s40.2-90 90-90c21.5 0 40.8 7.6 56.1 20.1l44.3-44.3c-27-23.5-61.6-38.1-100.4-38.1-84.5 0-152.3 67.8-152.3 152.3S197.6 557.5 282 557.5c76.2 0 145.4-55.4 145.4-152.3 0-9-1.4-18.7-3.5-27.7z" fill="#fff"/><path d="M536.2 200.6h397.4c36.5 0 66.4 29.4 66.4 65.4v400.2L536.2 200.6z" opacity=".2" fill="#fff"/></svg>