<svg xmlns="http://www.w3.org/2000/svg" xmlns:svg="http://www.w3.org/2000/svg" id="svg8" width="21.75cm" height="800" version="1.1" viewBox="-15 -25 89.055 150"><metadata id="metadata14"/><g id="g6" fill="#be1e2d" transform="matrix(1.0256923,0,0,1.0256923,-21.38114,-0.90817111)"><path id="path2" d="M 61.802,98.236 H 25.324 V 85.848 A 11.87,11.87 0 0 1 37.2,73.971 h 24.615 c 20.136,0 36.508,-16.328 36.508,-36.39 0,-20.064 -16.386,-36.392 -36.522,-36.392 h -0.38 L 53.69,0.956 h -77.013 c 0,-13.41 10.87,-24.28 24.265,-24.28 h 53.127 l 7.938,0.248 c 33.429,0.102 60.583,27.271 60.583,60.656 0,33.443 -27.271,60.656 -60.787,60.656 z"/><path id="path4" d="m 0.97,122.59 c -13.409,0 -24.265,-10.871 -24.265,-24.266 V 48.888 c 0,-13.015 10.55,-23.58 23.58,-23.58 h 61.56 a 12.14,12.14 0 0 1 0,24.28 h -48.88 c -6.61,0 -11.98,5.356 -11.98,11.98 v 61.021 z"/></g></svg>