<?xml version="1.0" encoding="UTF-8" standalone="no"?>
<svg
   xmlns:dc="http://purl.org/dc/elements/1.1/"
   xmlns:cc="http://creativecommons.org/ns#"
   xmlns:rdf="http://www.w3.org/1999/02/22-rdf-syntax-ns#"
   xmlns:svg="http://www.w3.org/2000/svg"
   xmlns="http://www.w3.org/2000/svg"
   xmlns:sodipodi="http://sodipodi.sourceforge.net/DTD/sodipodi-0.dtd"
   xmlns:inkscape="http://www.inkscape.org/namespaces/inkscape"
   viewBox="-15 -25 89.055118 150.00003"
   width="21.75cm"
   height="21.16667cm"
   version="1.1"
   id="svg8"
   sodipodi:docname="parler.svg"
   inkscape:version="1.0.1 (3bc2e813f5, 2020-09-07)">
  <metadata
     id="metadata14">
    <rdf:RDF>
      <cc:Work
         rdf:about="">
        <dc:format>image/svg+xml</dc:format>
        <dc:type
           rdf:resource="http://purl.org/dc/dcmitype/StillImage" />
        <dc:title></dc:title>
      </cc:Work>
    </rdf:RDF>
  </metadata>
  <defs
     id="defs12" />
  <sodipodi:namedview
     pagecolor="#ffffff"
     bordercolor="#666666"
     borderopacity="1"
     objecttolerance="10"
     gridtolerance="10"
     guidetolerance="10"
     inkscape:pageopacity="0"
     inkscape:pageshadow="2"
     inkscape:window-width="1920"
     inkscape:window-height="1019"
     id="namedview10"
     showgrid="false"
     units="cm"
     inkscape:zoom="0.7725"
     inkscape:cx="600"
     inkscape:cy="400"
     inkscape:window-x="1600"
     inkscape:window-y="32"
     inkscape:window-maximized="1"
     inkscape:current-layer="svg8" />
  <g
     fill="#be1e2d"
     id="g6"
     transform="matrix(1.0256923,0,0,1.0256923,-21.38114,-0.90817111)">
    <path
       d="M 61.802,98.236 H 25.324 V 85.848 A 11.87,11.87 0 0 1 37.2,73.971 h 24.615 c 20.136,0 36.508,-16.328 36.508,-36.39 0,-20.064 -16.386,-36.392 -36.522,-36.392 h -0.38 L 53.69,0.956 h -77.013 c 0,-13.41 10.87,-24.28 24.265,-24.28 h 53.127 l 7.938,0.248 c 33.429,0.102 60.583,27.271 60.583,60.656 0,33.443 -27.271,60.656 -60.787,60.656 z"
       id="path2" />
    <path
       d="m 0.97,122.59 c -13.409,0 -24.265,-10.871 -24.265,-24.266 V 48.888 c 0,-13.015 10.55,-23.58 23.58,-23.58 h 61.56 a 12.14,12.14 0 0 1 0,24.28 h -48.88 c -6.61,0 -11.98,5.356 -11.98,11.98 v 61.021 z"
       id="path4" />
  </g>
</svg>
