<?xml version="1.0" encoding="UTF-8" standalone="no"?>
<svg
   xmlns:dc="http://purl.org/dc/elements/1.1/"
   xmlns:cc="http://creativecommons.org/ns#"
   xmlns:rdf="http://www.w3.org/1999/02/22-rdf-syntax-ns#"
   xmlns:svg="http://www.w3.org/2000/svg"
   xmlns="http://www.w3.org/2000/svg"
   xmlns:sodipodi="http://sodipodi.sourceforge.net/DTD/sodipodi-0.dtd"
   xmlns:inkscape="http://www.inkscape.org/namespaces/inkscape"
   inkscape:version="1.0 (4035a4fb49, 2020-05-01)"
   sodipodi:docname="parler.svg"
   id="svg8"
   version="1.1"
   viewBox="-15 -25 130 150"
   width="1200"
   height="800">
  <metadata
     id="metadata14">
    <rdf:RDF>
      <cc:Work
         rdf:about="">
        <dc:format>image/svg+xml</dc:format>
        <dc:type
           rdf:resource="http://purl.org/dc/dcmitype/StillImage" />
      </cc:Work>
    </rdf:RDF>
  </metadata>
  <defs
     id="defs12" />
  <sodipodi:namedview
     inkscape:current-layer="svg8"
     inkscape:window-maximized="0"
     inkscape:window-y="0"
     inkscape:window-x="0"
     inkscape:cy="400"
     inkscape:cx="600"
     inkscape:zoom="0.785"
     showgrid="false"
     id="namedview10"
     inkscape:window-height="867"
     inkscape:window-width="1455"
     inkscape:pageshadow="2"
     inkscape:pageopacity="0"
     guidetolerance="10"
     gridtolerance="10"
     objecttolerance="10"
     borderopacity="1"
     bordercolor="#666666"
     pagecolor="#ffffff" />
  <g
     transform="matrix(1.4591301,0,0,1.4591301,-23.32389,-23.32389)"
     id="g6"
     fill="#be1e2d">
    <path
       id="path2"
       d="m 58.34,83.31 h -25 v -8.49 c 0,-4.5 3.64,-8.14 8.14,-8.14 h 16.87 c 13.8,0 25.02,-11.19 25.02,-24.94 C 83.37,27.99 72.14,16.8 58.34,16.8 h -0.26 l -5.3,-0.16 H 0 C 0,7.45 7.45,0 16.63,0 h 36.41 l 5.44,0.17 C 81.39,0.24 100,18.86 100,41.74 100,64.66 81.31,83.31 58.34,83.31 Z" />
    <path
       id="path4"
       d="M 16.65,100 C 7.46,100 0.02,92.55 0.02,83.37 V 49.49 c 0,-8.92 7.23,-16.16 16.16,-16.16 h 42.19 a 8.32,8.32 0 0 1 0,16.64 h -33.5 c -4.53,0 -8.21,3.67 -8.21,8.21 V 100 Z" />
  </g>
</svg>
