<svg xmlns="http://www.w3.org/2000/svg" viewBox="-15 -25 130 150" width="1200" height="800"><g fill="#be1e2d"><path d="M61.802 98.236H25.324V85.848A11.87 11.87 0 0137.2 73.971h24.615c20.136 0 36.508-16.328 36.508-36.39 0-20.064-16.386-36.392-36.522-36.392h-.38L53.69.956h-77.013c0-13.41 10.87-24.28 24.265-24.28h53.127l7.938.248c33.429.102 60.583 27.271 60.583 60.656 0 33.443-27.271 60.656-60.787 60.656z"/><path d="M.97 122.59c-13.409 0-24.265-10.871-24.265-24.266V48.888c0-13.015 10.55-23.58 23.58-23.58h61.56a12.14 12.14 0 010 24.28h-48.88c-6.61 0-11.98 5.356-11.98 11.98v61.021z"/></g></svg>