<svg xmlns="http://www.w3.org/2000/svg" xmlns:svg="http://www.w3.org/2000/svg" xmlns:xlink="http://www.w3.org/1999/xlink" id="svg2" x="0" y="0" enable-background="new 304.1 24.3 464.5 465" version="1.1" viewBox="304.1 24.3 464.5 465" xml:space="preserve"><style type="text/css">.st0{fill:#cb2027}.st1{fill:#fff}.st2{fill:#bd081c}</style><g id="g16"><g id="g62" transform="translate(123.0422,246.9921)"><g id="XMLID_1_"><g><path d="M566.3-158.6C612.1-117,640.8-57,640.8,9.8c0,125.6-101.9,227.5-227.5,227.5c-3.1,0-6.1-0.1-9.2-0.2 c-0.8,0-1.7-0.1-2.5-0.1c-0.7,0-1.4-0.1-2.1-0.1c-0.5,0-1-0.1-1.4-0.1c-0.7,0-1.4-0.1-2.2-0.2c-0.5,0-1-0.1-1.5-0.1 c-1-0.1-1.9-0.2-2.8-0.3c-0.7-0.1-1.4-0.1-2.1-0.2c-1.4-0.1-2.9-0.3-4.3-0.5c-0.6-0.1-1.2-0.1-1.8-0.2c-1.6-0.2-3.2-0.4-4.8-0.7 c-1.3-0.2-2.6-0.4-3.9-0.6c-0.1,0-0.2,0-0.4-0.1c-1.3-0.2-2.7-0.5-4-0.7c-1.4-0.3-2.7-0.5-4.1-0.8c-0.1,0-0.2,0-0.3-0.1 c-1.3-0.3-2.6-0.6-4-0.9c-0.1,0-0.1,0-0.2-0.1c-1.2-0.3-2.5-0.6-3.7-0.9c-0.1,0-0.2,0-0.3-0.1c-4-1-8-2.1-12-3.4 c9.3-15.1,23.1-39.9,28.3-59.6c2.8-10.6,14.2-54.1,14.2-54.1c7.4,14.2,29.1,26.1,52.1,26.1c68.6,0,118-63.1,118-141.5 c0-75.2-61.3-131.4-140.3-131.4c-98.2,0-150.3,65.9-150.3,137.7c0,33.4,17.8,74.9,46.2,88.1c4.3,2,6.6,1.1,7.6-3 c0.8-3.2,4.6-18.6,6.3-25.8c0.6-2.3,0.3-4.3-1.6-6.5c-9.4-11.4-16.9-32.4-16.9-51.9c0-50.2,38-98.7,102.7-98.7 c55.9,0,95,38.1,95,92.5c0,61.5-31.1,104.2-71.5,104.2c-22.3,0-39.1-18.5-33.7-41.1C408.6,35,421,5.8,421-13.7 c0-17.5-9.4-32-28.8-32c-22.8,0-41.2,23.6-41.2,55.3c0,20.1,6.8,33.8,6.8,33.8s-22.5,95.3-26.7,113.1 c-4.6,19.7-2.8,47.3-0.8,65.3c-1-0.4-2.1-0.8-3.1-1.2c-0.6-0.3-1.2-0.5-1.9-0.8c-0.8-0.3-1.6-0.7-2.4-1c-1.2-0.5-2.3-1-3.5-1.6 c-0.7-0.3-1.3-0.6-2-0.9c-0.5-0.2-0.9-0.4-1.4-0.7c-0.5-0.2-1.1-0.5-1.6-0.8c-0.9-0.4-1.9-0.9-2.8-1.4c-0.5-0.3-1-0.5-1.6-0.8 c-1.1-0.5-2.1-1.1-3.1-1.6c-1.1-0.6-2.2-1.2-3.3-1.8c-0.2-0.1-0.3-0.2-0.5-0.3c-1.1-0.6-2.3-1.3-3.4-1.9 c-1.1-0.6-2.2-1.3-3.3-1.9c-1.4-0.9-2.9-1.7-4.3-2.6c-1.1-0.7-2.1-1.4-3.2-2.1c-3.5-2.3-7-4.7-10.4-7.2 c-1.1-0.8-2.3-1.7-3.4-2.5c-1-0.8-2.1-1.6-3.1-2.4c-0.1-0.1-0.3-0.2-0.4-0.4c-1-0.8-2-1.6-3-2.4c-1.1-0.9-2.1-1.8-3.2-2.7 s-2.1-1.8-3.2-2.8c-1-0.9-2.1-1.9-3.1-2.8c-6.2-5.7-12-11.7-17.5-18c-0.9-1.1-1.8-2.1-2.7-3.2c-1.8-2.1-3.6-4.3-5.3-6.5 c-3.4-4.4-6.7-8.9-9.8-13.6c-0.4-0.6-0.8-1.2-1.2-1.8c-0.8-1.2-1.5-2.4-2.3-3.5c-0.7-1.2-1.5-2.4-2.2-3.6 c-0.7-1.2-1.4-2.4-2.2-3.6c-1.1-1.8-2.1-3.7-3.1-5.5c-1-1.9-2-3.8-3-5.7c-0.3-0.6-0.6-1.2-0.9-1.8c-2.6-5.2-4.9-10.5-7.1-15.9 c-0.2-0.5-0.4-1.1-0.6-1.6c-0.7-1.6-1.3-3.3-1.9-5c-0.3-0.8-0.6-1.7-0.9-2.5c-1-2.8-2-5.7-2.9-8.6c-0.4-1.3-0.8-2.5-1.1-3.8 c-0.5-1.7-0.9-3.3-1.4-5c-0.3-1.1-0.6-2.1-0.8-3.2c-0.1-0.4-0.2-0.8-0.3-1.1c-0.2-0.8-0.4-1.7-0.6-2.6c-0.2-0.9-0.4-1.8-0.6-2.8 c-0.1-0.5-0.2-1-0.3-1.5c-0.2-1-0.4-2-0.6-3.1c-0.1-0.7-0.3-1.4-0.4-2.1c0,0,0,0,0,0c-0.1-0.7-0.3-1.4-0.4-2.1 c-0.3-1.8-0.6-3.5-0.9-5.3c-0.1-0.8-0.3-1.7-0.4-2.5c-0.4-2.5-0.7-4.9-0.9-7.4c-0.1-0.7-0.2-1.4-0.2-2c-0.3-2.7-0.5-5.4-0.7-8.2 c-0.1-0.9-0.1-1.7-0.1-2.6c-0.1-1.6-0.1-3.3-0.2-5c0,0,0,0,0,0c0-0.5,0-1,0-1.5c0-0.8,0-1.5,0-2.3c0-1,0-2,0-2.9 c0-66.8,28.8-126.8,74.5-168.4c2-1.8,4.1-3.6,6.2-5.4c2.1-1.8,4.2-3.5,6.4-5.2c2.1-1.7,4.3-3.3,6.5-4.9c2.2-1.6,4.5-3.2,6.7-4.7 c1.5-1,3-2,4.6-3c3.1-2,6.2-3.9,9.4-5.7c1.6-0.9,3.2-1.8,4.8-2.7c1.6-0.9,3.2-1.7,4.9-2.6c2.5-1.3,4.9-2.5,7.4-3.6 c1.7-0.8,3.4-1.5,5-2.3c0.8-0.4,1.7-0.7,2.5-1.1c1.7-0.7,3.4-1.4,5.1-2.1c0.9-0.3,1.7-0.7,2.6-1c2.6-1,5.2-1.9,7.9-2.8 c1.8-0.6,3.5-1.2,5.3-1.7c4.5-1.4,9-2.6,13.5-3.8c1.8-0.4,3.7-0.9,5.5-1.3c15.7-3.4,31.9-5.2,48.6-5.2s33,1.8,48.6,5.2 c1.8,0.4,3.7,0.8,5.5,1.3c4.6,1.1,9.1,2.4,13.5,3.8c1.8,0.6,3.6,1.1,5.3,1.7c2.7,0.9,5.3,1.8,7.9,2.8c0.9,0.3,1.7,0.7,2.6,1 c1.7,0.7,3.4,1.4,5.1,2.1c0.8,0.4,1.7,0.7,2.5,1.1c1.7,0.7,3.4,1.5,5,2.3c2.5,1.2,5,2.4,7.4,3.6c1.6,0.8,3.3,1.7,4.9,2.6 c1.6,0.9,3.2,1.8,4.8,2.7c3.2,1.8,6.3,3.7,9.4,5.7c1.5,1,3.1,2,4.6,3c2.3,1.5,4.5,3.1,6.7,4.7c2.2,1.6,4.4,3.3,6.5,4.9 c2.2,1.7,4.3,3.4,6.4,5.2C562.2-162.3,564.3-160.5,566.3-158.6z" class="st0"/><path d="M560.2-164c2.1,1.8,4.1,3.6,6.2,5.4C564.3-160.5,562.2-162.3,560.2-164z" class="st1"/><path d="M547.3-174.2c2.2,1.6,4.4,3.3,6.5,4.9C551.7-170.9,549.5-172.6,547.3-174.2z" class="st1"/><path d="M536-181.9c1.5,1,3.1,2,4.6,3C539-179.9,537.5-180.9,536-181.9z" class="st1"/><path d="M526.6-187.6c3.2,1.8,6.3,3.7,9.4,5.7C532.9-183.9,529.8-185.8,526.6-187.6z" class="st1"/><path d="M558.6-2c0,78.4-49.4,141.5-118,141.5c-23.1,0-44.7-12-52.1-26.1c0,0-11.4,43.4-14.2,54.1 c-5.1,19.8-19,44.5-28.3,59.6c3.9,1.2,7.9,2.3,12,3.4c-9.4-2.4-18.6-5.3-27.5-8.8c-2-18-3.8-45.7,0.8-65.3 c4.1-17.8,26.7-113.1,26.7-113.1s-6.8-13.6-6.8-33.8c0-31.6,18.3-55.3,41.2-55.3c19.4,0,28.8,14.6,28.8,32 C421,5.8,408.6,35,402.2,62c-5.4,22.6,11.4,41.1,33.7,41.1c40.4,0,71.5-42.6,71.5-104.2c0-54.5-39.1-92.5-95-92.5 c-64.7,0-102.7,48.5-102.7,98.7c0,19.6,7.5,40.5,16.9,51.9c1.9,2.3,2.1,4.2,1.6,6.5c-1.7,7.2-5.6,22.6-6.3,25.8 c-1,4.2-3.3,5-7.6,3c-28.4-13.2-46.2-54.8-46.2-88.1c0-71.8,52.1-137.7,150.3-137.7C497.3-133.4,558.6-77.1,558.6-2z" class="st1"/><path d="M521.8-190.3c1.6,0.9,3.2,1.8,4.8,2.7C525-188.5,523.4-189.4,521.8-190.3z" class="st1"/><path d="M509.5-196.5c2.5,1.2,5,2.4,7.4,3.6C514.5-194.1,512-195.3,509.5-196.5z" class="st1"/><path d="M504.4-198.8c1.7,0.7,3.4,1.5,5,2.3C507.8-197.3,506.1-198,504.4-198.8z" class="st1"/><path d="M496.8-202c1.7,0.7,3.4,1.4,5.1,2.1C500.2-200.6,498.5-201.3,496.8-202z" class="st1"/><path d="M486.3-205.8c2.7,0.9,5.3,1.8,7.9,2.8C491.6-204,489-204.9,486.3-205.8z" class="st1"/><path d="M481-207.5c1.8,0.6,3.6,1.1,5.3,1.7C484.5-206.4,482.8-207,481-207.5z" class="st1"/><path d="M462-212.5c1.8,0.4,3.7,0.8,5.5,1.3C465.6-211.7,463.8-212.1,462-212.5z" class="st1"/><path d="M401.6,237c0.8,0.1,1.7,0.1,2.5,0.1C403.3,237,402.5,237,401.6,237z" class="st2"/><path d="M399.5,236.8c0.7,0.1,1.4,0.1,2.1,0.1C400.9,236.9,400.2,236.9,399.5,236.8z" class="st2"/><path d="M398.1,236.7c0.5,0,1,0.1,1.4,0.1C399,236.8,398.6,236.8,398.1,236.7z" class="st1"/><path d="M394.5,236.5c0.5,0.1,1,0.1,1.5,0.1C395.4,236.6,394.9,236.5,394.5,236.5z" class="st1"/><path d="M389.5,236c0.7,0.1,1.4,0.2,2.1,0.2C390.9,236.2,390.2,236.1,389.5,236z" class="st1"/><path d="M383.5,235.3c0.6,0.1,1.2,0.1,1.8,0.2C384.6,235.5,384,235.4,383.5,235.3z" class="st1"/><path d="M374.8,234c1.3,0.2,2.6,0.4,3.9,0.6C377.4,234.4,376.1,234.2,374.8,234z" class="st1"/><path d="M370.5,233.2c1.3,0.3,2.7,0.5,4,0.7C373.1,233.7,371.8,233.5,370.5,233.2z" class="st1"/><path d="M366.4,232.4c1.4,0.3,2.7,0.6,4.1,0.8C369.1,233,367.8,232.7,366.4,232.4z" class="st1"/><path d="M362.2,231.5c1.3,0.3,2.6,0.6,4,0.9C364.8,232.1,363.5,231.8,362.2,231.5z" class="st1"/><path d="M358.2,230.5c1.2,0.3,2.5,0.6,3.7,0.9C360.7,231.1,359.5,230.8,358.2,230.5z" class="st1"/><path d="M359.2-211.3c1.8-0.4,3.7-0.9,5.5-1.3C362.9-212.1,361-211.7,359.2-211.3z" class="st1"/><path d="M340.4-205.8c1.8-0.6,3.5-1.2,5.3-1.7C343.9-207,342.1-206.4,340.4-205.8z" class="st1"/><path d="M332.5-203c2.6-1,5.2-1.9,7.9-2.8C337.7-204.9,335.1-204,332.5-203z" class="st1"/><path d="M324.8-199.9c1.7-0.7,3.4-1.4,5.1-2.1C328.2-201.3,326.5-200.6,324.8-199.9z" class="st1"/><path d="M325.5,219.7c0.6,0.3,1.2,0.5,1.9,0.8C326.7,220.2,326.1,219.9,325.5,219.7z" class="st2"/><path d="M323.2,218.7c0.8,0.3,1.6,0.7,2.4,1C324.7,219.3,323.9,219,323.2,218.7z" class="st1"/><path d="M317.2-196.5c1.7-0.8,3.4-1.5,5-2.3C320.6-198,318.9-197.3,317.2-196.5z" class="st1"/><path d="M317.7,216.2c0.7,0.3,1.3,0.6,2,0.9C319,216.8,318.3,216.5,317.7,216.2z" class="st2"/><path d="M314.7,214.8c0.5,0.3,1.1,0.5,1.6,0.8C315.8,215.3,315.2,215.1,314.7,214.8z" class="st2"/><path d="M309.8-192.9c2.5-1.3,4.9-2.5,7.4-3.6C314.7-195.3,312.2-194.1,309.8-192.9z" class="st1"/><path d="M310.3,212.6c0.5,0.3,1,0.5,1.6,0.8C311.4,213.2,310.8,212.9,310.3,212.6z" class="st2"/><path d="M303.9,209.2c1.1,0.6,2.2,1.2,3.3,1.8C306.1,210.4,305,209.8,303.9,209.2z" class="st1"/><path d="M299.9,207c1.1,0.7,2.3,1.3,3.4,1.9C302.2,208.3,301.1,207.7,299.9,207z" class="st1"/><path d="M300.1-187.6c1.6-0.9,3.2-1.8,4.8-2.7C303.3-189.4,301.7-188.5,300.1-187.6z" class="st1"/><path d="M296.7,205.1c1.1,0.7,2.2,1.3,3.3,1.9C298.8,206.4,297.8,205.7,296.7,205.1z" class="st1"/><path d="M290.7-181.9c3.1-2,6.2-3.9,9.4-5.7C296.9-185.8,293.8-183.9,290.7-181.9z" class="st1"/><path d="M289.2,200.4c1.1,0.7,2.1,1.4,3.2,2.1C291.3,201.8,290.2,201.1,289.2,200.4z" class="st1"/><path d="M286.1-178.9c1.5-1,3-2,4.6-3C289.2-180.9,287.7-179.9,286.1-178.9z" class="st1"/><path d="M278.8,193.2c3.4,2.5,6.8,4.9,10.4,7.2C285.6,198.1,282.2,195.7,278.8,193.2z" class="st1"/><path d="M275.4,190.7c1.1,0.9,2.2,1.7,3.4,2.5C277.7,192.4,276.6,191.6,275.4,190.7z" class="st1"/><path d="M272.3,188.3c1,0.8,2.1,1.6,3.1,2.4C274.4,189.9,273.4,189.1,272.3,188.3z" class="st1"/><path d="M272.9-169.2c2.1-1.7,4.3-3.3,6.5-4.9C277.2-172.6,275-170.9,272.9-169.2z" class="st1"/><path d="M268.9,185.5c1,0.8,2,1.6,3,2.4C270.9,187.1,269.9,186.3,268.9,185.5z" class="st1"/><path d="M265.7,182.8c1.1,0.9,2.1,1.8,3.2,2.7C267.8,184.6,266.7,183.7,265.7,182.8z" class="st1"/><path d="M262.5,180.1c1,0.9,2.1,1.8,3.2,2.8C264.6,181.9,263.6,181,262.5,180.1z" class="st1"/><path d="M259.4,177.2c1,0.9,2.1,1.9,3.1,2.8C261.5,179.1,260.4,178.2,259.4,177.2z" class="st1"/><path d="M260.4-158.6c2-1.8,4.1-3.6,6.2-5.4C264.5-162.3,262.4-160.5,260.4-158.6z" class="st1"/><path d="M259.4,177.2c-6.2-5.7-12-11.7-17.5-18C247.4,165.6,253.2,171.6,259.4,177.2z" class="st1"/><path d="M239.1,156.1c0.9,1.1,1.8,2.1,2.7,3.2C240.9,158.2,240,157.1,239.1,156.1z" class="st1"/><path d="M233.9,149.6c1.7,2.2,3.5,4.4,5.3,6.5C237.3,153.9,235.6,151.8,233.9,149.6z" class="st1"/><path d="M224,136c3.1,4.7,6.4,9.2,9.8,13.6C230.4,145.2,227.1,140.6,224,136z" class="st1"/><path d="M220.6,130.7c0.8,1.2,1.5,2.4,2.3,3.5C222.1,133,221.3,131.8,220.6,130.7z" class="st1"/><path d="M218.4,127.1c-0.7-1.2-1.5-2.4-2.2-3.6C217,124.7,217.7,125.9,218.4,127.1z" class="st1"/><path d="M213.2,117.9c1,1.9,2,3.7,3.1,5.5C215.2,121.6,214.2,119.8,213.2,117.9z" class="st1"/><path d="M209.3,110.4c0.3,0.6,0.6,1.2,0.9,1.8C209.9,111.6,209.6,111,209.3,110.4z" class="st1"/><path d="M201.5,93c0.2,0.5,0.4,1.1,0.6,1.6C202,94,201.8,93.5,201.5,93z" class="st1"/><path d="M198.7,85.4c0.3,0.8,0.6,1.7,0.9,2.5C199.3,87.1,199,86.3,198.7,85.4z" class="st2"/><path d="M194.8,73c0.4,1.3,0.8,2.6,1.1,3.8C195.5,75.5,195.1,74.3,194.8,73z" class="st1"/><path d="M193.4,68c-0.3-1.1-0.6-2.1-0.8-3.2C192.8,65.9,193.1,66.9,193.4,68z" class="st1"/><path d="M191.7,61.1c0.2,0.8,0.4,1.7,0.6,2.6C192.1,62.8,191.9,62,191.7,61.1z" class="st2"/><path d="M191.1,58.4c0.2,0.9,0.4,1.8,0.6,2.8C191.5,60.2,191.3,59.3,191.1,58.4z" class="st2"/><path d="M190.7,56.9c0.1,0.5,0.2,1,0.3,1.5C190.9,57.9,190.8,57.4,190.7,56.9z" class="st2"/><path d="M190.1,53.8c0.2,1,0.4,2.1,0.6,3.1C190.5,55.8,190.3,54.8,190.1,53.8z" class="st1"/><path d="M189.7,51.6c0.1,0.7,0.3,1.4,0.4,2.1C190,53.1,189.8,52.4,189.7,51.6z" class="st1"/><path d="M189.3,49.5c0.1,0.7,0.3,1.4,0.4,2.1C189.6,50.9,189.4,50.2,189.3,49.5z" class="st1"/><path d="M188.1,41.7c0.1,0.8,0.2,1.7,0.4,2.5C188.3,43.4,188.2,42.5,188.1,41.7z" class="st2"/><path d="M186.9,32.2c0.1,0.7,0.1,1.4,0.2,2C187.1,33.6,187,32.9,186.9,32.2z" class="st1"/><path d="M186.1,21.5c0,0.9,0.1,1.7,0.1,2.6C186.2,23.2,186.2,22.3,186.1,21.5z" class="st2"/><path d="M185.9,16.5c0.1,1.7,0.1,3.3,0.2,5C186.1,19.8,186,18.2,185.9,16.5z" class="st2"/><path d="M185.9,15c0,0.5,0,1,0,1.5C185.9,16,185.9,15.5,185.9,15z" class="st1"/><path d="M185.9,12.7c0,0.8,0,1.5,0,2.3C185.9,14.2,185.9,13.5,185.9,12.7z" class="st2"/><path d="M185.8,9.8c0,1,0,2,0,2.9C185.9,11.7,185.8,10.7,185.8,9.8z" class="st2"/></g></g></g></g></svg>