<svg xmlns="http://www.w3.org/2000/svg" id="svg2" x="0" y="0" version="1.1" viewBox="304.1 24.3 464.5 465" xml:space="preserve"><style>.st1{fill:#fff}.st2{fill:#bd081c}</style><g id="g16"><g id="g62" transform="translate(123.042 246.992)"><g id="XMLID_1_"><path d="M566.3-158.6C612.1-117 640.8-57 640.8 9.8c0 125.6-101.9 227.5-227.5 227.5-3.1 0-6.1-.1-9.2-.2-.8 0-1.7-.1-2.5-.1-.7 0-1.4-.1-2.1-.1-.5 0-1-.1-1.4-.1-.7 0-1.4-.1-2.2-.2-.5 0-1-.1-1.5-.1-1-.1-1.9-.2-2.8-.3-.7-.1-1.4-.1-2.1-.2-1.4-.1-2.9-.3-4.3-.5-.6-.1-1.2-.1-1.8-.2-1.6-.2-3.2-.4-4.8-.7l-3.9-.6c-.1 0-.2 0-.4-.1-1.3-.2-2.7-.5-4-.7-1.4-.3-2.7-.5-4.1-.8-.1 0-.2 0-.3-.1-1.3-.3-2.6-.6-4-.9-.1 0-.1 0-.2-.1-1.2-.3-2.5-.6-3.7-.9-.1 0-.2 0-.3-.1-4-1-8-2.1-12-3.4 9.3-15.1 23.1-39.9 28.3-59.6 2.8-10.6 14.2-54.1 14.2-54.1 7.4 14.2 29.1 26.1 52.1 26.1 68.6 0 118-63.1 118-141.5 0-75.2-61.3-131.4-140.3-131.4-98.2 0-150.3 65.9-150.3 137.7 0 33.4 17.8 74.9 46.2 88.1 4.3 2 6.6 1.1 7.6-3 .8-3.2 4.6-18.6 6.3-25.8.6-2.3.3-4.3-1.6-6.5-9.4-11.4-16.9-32.4-16.9-51.9 0-50.2 38-98.7 102.7-98.7 55.9 0 95 38.1 95 92.5 0 61.5-31.1 104.2-71.5 104.2-22.3 0-39.1-18.5-33.7-41.1C408.6 35 421 5.8 421-13.7c0-17.5-9.4-32-28.8-32-22.8 0-41.2 23.6-41.2 55.3 0 20.1 6.8 33.8 6.8 33.8s-22.5 95.3-26.7 113.1c-4.6 19.7-2.8 47.3-.8 65.3-1-.4-2.1-.8-3.1-1.2-.6-.3-1.2-.5-1.9-.8-.8-.3-1.6-.7-2.4-1-1.2-.5-2.3-1-3.5-1.6-.7-.3-1.3-.6-2-.9-.5-.2-.9-.4-1.4-.7-.5-.2-1.1-.5-1.6-.8-.9-.4-1.9-.9-2.8-1.4-.5-.3-1-.5-1.6-.8-1.1-.5-2.1-1.1-3.1-1.6l-3.3-1.8c-.2-.1-.3-.2-.5-.3-1.1-.6-2.3-1.3-3.4-1.9-1.1-.6-2.2-1.3-3.3-1.9-1.4-.9-2.9-1.7-4.3-2.6-1.1-.7-2.1-1.4-3.2-2.1-3.5-2.3-7-4.7-10.4-7.2-1.1-.8-2.3-1.7-3.4-2.5-1-.8-2.1-1.6-3.1-2.4-.1-.1-.3-.2-.4-.4l-3-2.4c-1.1-.9-2.1-1.8-3.2-2.7s-2.1-1.8-3.2-2.8c-1-.9-2.1-1.9-3.1-2.8-6.2-5.7-12-11.7-17.5-18-.9-1.1-1.8-2.1-2.7-3.2-1.8-2.1-3.6-4.3-5.3-6.5-3.4-4.4-6.7-8.9-9.8-13.6l-1.2-1.8c-.8-1.2-1.5-2.4-2.3-3.5-.7-1.2-1.5-2.4-2.2-3.6-.7-1.2-1.4-2.4-2.2-3.6-1.1-1.8-2.1-3.7-3.1-5.5l-3-5.7-.9-1.8c-2.6-5.2-4.9-10.5-7.1-15.9-.2-.5-.4-1.1-.6-1.6-.7-1.6-1.3-3.3-1.9-5-.3-.8-.6-1.7-.9-2.5-1-2.8-2-5.7-2.9-8.6-.4-1.3-.8-2.5-1.1-3.8-.5-1.7-.9-3.3-1.4-5-.3-1.1-.6-2.1-.8-3.2-.1-.4-.2-.8-.3-1.1-.2-.8-.4-1.7-.6-2.6-.2-.9-.4-1.8-.6-2.8l-.3-1.5c-.2-1-.4-2-.6-3.1-.1-.7-.3-1.4-.4-2.1-.1-.7-.3-1.4-.4-2.1-.3-1.8-.6-3.5-.9-5.3-.1-.8-.3-1.7-.4-2.5-.4-2.5-.7-4.9-.9-7.4-.1-.7-.2-1.4-.2-2-.3-2.7-.5-5.4-.7-8.2-.1-.9-.1-1.7-.1-2.6-.1-1.6-.1-3.3-.2-5V15v-2.3-2.9c0-66.8 28.8-126.8 74.5-168.4 2-1.8 4.1-3.6 6.2-5.4 2.1-1.8 4.2-3.5 6.4-5.2 2.1-1.7 4.3-3.3 6.5-4.9 2.2-1.6 4.5-3.2 6.7-4.7 1.5-1 3-2 4.6-3 3.1-2 6.2-3.9 9.4-5.7l4.8-2.7c1.6-.9 3.2-1.7 4.9-2.6 2.5-1.3 4.9-2.5 7.4-3.6 1.7-.8 3.4-1.5 5-2.3.8-.4 1.7-.7 2.5-1.1l5.1-2.1c.9-.3 1.7-.7 2.6-1 2.6-1 5.2-1.9 7.9-2.8 1.8-.6 3.5-1.2 5.3-1.7 4.5-1.4 9-2.6 13.5-3.8 1.8-.4 3.7-.9 5.5-1.3 15.7-3.4 31.9-5.2 48.6-5.2s33 1.8 48.6 5.2c1.8.4 3.7.8 5.5 1.3 4.6 1.1 9.1 2.4 13.5 3.8 1.8.6 3.6 1.1 5.3 1.7 2.7.9 5.3 1.8 7.9 2.8.9.3 1.7.7 2.6 1l5.1 2.1c.8.4 1.7.7 2.5 1.1 1.7.7 3.4 1.5 5 2.3 2.5 1.2 5 2.4 7.4 3.6 1.6.8 3.3 1.7 4.9 2.6l4.8 2.7c3.2 1.8 6.3 3.7 9.4 5.7 1.5 1 3.1 2 4.6 3 2.3 1.5 4.5 3.1 6.7 4.7s4.4 3.3 6.5 4.9c2.2 1.7 4.3 3.4 6.4 5.2 2.5 1.7 4.6 3.5 6.6 5.4z" fill="#cb2027"/><path d="M560.2-164c2.1 1.8 4.1 3.6 6.2 5.4-2.1-1.9-4.2-3.7-6.2-5.4zM547.3-174.2c2.2 1.6 4.4 3.3 6.5 4.9-2.1-1.6-4.3-3.3-6.5-4.9zM536-181.9c1.5 1 3.1 2 4.6 3-1.6-1-3.1-2-4.6-3zM526.6-187.6c3.2 1.8 6.3 3.7 9.4 5.7-3.1-2-6.2-3.9-9.4-5.7zM558.6-2c0 78.4-49.4 141.5-118 141.5-23.1 0-44.7-12-52.1-26.1 0 0-11.4 43.4-14.2 54.1-5.1 19.8-19 44.5-28.3 59.6 3.9 1.2 7.9 2.3 12 3.4-9.4-2.4-18.6-5.3-27.5-8.8-2-18-3.8-45.7.8-65.3C335.4 138.6 358 43.3 358 43.3s-6.8-13.6-6.8-33.8c0-31.6 18.3-55.3 41.2-55.3 19.4 0 28.8 14.6 28.8 32-.2 19.6-12.6 48.8-19 75.8-5.4 22.6 11.4 41.1 33.7 41.1 40.4 0 71.5-42.6 71.5-104.2 0-54.5-39.1-92.5-95-92.5-64.7 0-102.7 48.5-102.7 98.7 0 19.6 7.5 40.5 16.9 51.9 1.9 2.3 2.1 4.2 1.6 6.5-1.7 7.2-5.6 22.6-6.3 25.8-1 4.2-3.3 5-7.6 3-28.4-13.2-46.2-54.8-46.2-88.1 0-71.8 52.1-137.7 150.3-137.7 78.9.1 140.2 56.4 140.2 131.5zM521.8-190.3l4.8 2.7-4.8-2.7zM509.5-196.5c2.5 1.2 5 2.4 7.4 3.6-2.4-1.2-4.9-2.4-7.4-3.6zM504.4-198.8c1.7.7 3.4 1.5 5 2.3-1.6-.8-3.3-1.5-5-2.3zM496.8-202l5.1 2.1-5.1-2.1zM486.3-205.8c2.7.9 5.3 1.8 7.9 2.8-2.6-1-5.2-1.9-7.9-2.8zM481-207.5c1.8.6 3.6 1.1 5.3 1.7-1.8-.6-3.5-1.2-5.3-1.7zM462-212.5c1.8.4 3.7.8 5.5 1.3-1.9-.5-3.7-.9-5.5-1.3z" class="st1"/><path d="M401.6 237c.8.1 1.7.1 2.5.1-.8-.1-1.6-.1-2.5-.1zM399.5 236.8c.7.1 1.4.1 2.1.1-.7 0-1.4 0-2.1-.1z" class="st2"/><path d="M398.1 236.7c.5 0 1 .1 1.4.1-.5 0-.9 0-1.4-.1zM394.5 236.5c.5.1 1 .1 1.5.1-.6 0-1.1-.1-1.5-.1zM389.5 236c.7.1 1.4.2 2.1.2-.7 0-1.4-.1-2.1-.2zM383.5 235.3c.6.1 1.2.1 1.8.2-.7 0-1.3-.1-1.8-.2zM374.8 234l3.9.6-3.9-.6zM370.5 233.2c1.3.3 2.7.5 4 .7-1.4-.2-2.7-.4-4-.7zM366.4 232.4c1.4.3 2.7.6 4.1.8-1.4-.2-2.7-.5-4.1-.8zM362.2 231.5c1.3.3 2.6.6 4 .9-1.4-.3-2.7-.6-4-.9zM358.2 230.5c1.2.3 2.5.6 3.7.9-1.2-.3-2.4-.6-3.7-.9zM359.2-211.3c1.8-.4 3.7-.9 5.5-1.3-1.8.5-3.7.9-5.5 1.3zM340.4-205.8c1.8-.6 3.5-1.2 5.3-1.7-1.8.5-3.6 1.1-5.3 1.7zM332.5-203c2.6-1 5.2-1.9 7.9-2.8-2.7.9-5.3 1.8-7.9 2.8zM324.8-199.9l5.1-2.1-5.1 2.1z" class="st1"/><path d="M325.5 219.7c.6.3 1.2.5 1.9.8-.7-.3-1.3-.6-1.9-.8z" class="st2"/><path d="M323.2 218.7c.8.3 1.6.7 2.4 1-.9-.4-1.7-.7-2.4-1zM317.2-196.5c1.7-.8 3.4-1.5 5-2.3-1.6.8-3.3 1.5-5 2.3z" class="st1"/><path d="M317.7 216.2c.7.3 1.3.6 2 .9-.7-.3-1.4-.6-2-.9zM314.7 214.8c.5.3 1.1.5 1.6.8-.5-.3-1.1-.5-1.6-.8z" class="st2"/><path d="M309.8-192.9c2.5-1.3 4.9-2.5 7.4-3.6-2.5 1.2-5 2.4-7.4 3.6z" class="st1"/><path d="M310.3 212.6c.5.3 1 .5 1.6.8-.5-.2-1.1-.5-1.6-.8z" class="st2"/><path d="M303.9 209.2l3.3 1.8-3.3-1.8zM299.9 207c1.1.7 2.3 1.3 3.4 1.9-1.1-.6-2.2-1.2-3.4-1.9zM300.1-187.6l4.8-2.7-4.8 2.7zM296.7 205.1c1.1.7 2.2 1.3 3.3 1.9-1.2-.6-2.2-1.3-3.3-1.9zM290.7-181.9c3.1-2 6.2-3.9 9.4-5.7-3.2 1.8-6.3 3.7-9.4 5.7zM289.2 200.4c1.1.7 2.1 1.4 3.2 2.1-1.1-.7-2.2-1.4-3.2-2.1zM286.1-178.9c1.5-1 3-2 4.6-3-1.5 1-3 2-4.6 3zM278.8 193.2c3.4 2.5 6.8 4.9 10.4 7.2-3.6-2.3-7-4.7-10.4-7.2zM275.4 190.7c1.1.9 2.2 1.7 3.4 2.5-1.1-.8-2.2-1.6-3.4-2.5zM272.3 188.3c1 .8 2.1 1.6 3.1 2.4-1-.8-2-1.6-3.1-2.4zM272.9-169.2c2.1-1.7 4.3-3.3 6.5-4.9-2.2 1.5-4.4 3.2-6.5 4.9zM268.9 185.5l3 2.4-3-2.4zM265.7 182.8c1.1.9 2.1 1.8 3.2 2.7-1.1-.9-2.2-1.8-3.2-2.7zM262.5 180.1c1 .9 2.1 1.8 3.2 2.8-1.1-1-2.1-1.9-3.2-2.8zM259.4 177.2c1 .9 2.1 1.9 3.1 2.8-1-.9-2.1-1.8-3.1-2.8zM260.4-158.6c2-1.8 4.1-3.6 6.2-5.4-2.1 1.7-4.2 3.5-6.2 5.4zM259.4 177.2c-6.2-5.7-12-11.7-17.5-18 5.5 6.4 11.3 12.4 17.5 18zM239.1 156.1c.9 1.1 1.8 2.1 2.7 3.2-.9-1.1-1.8-2.2-2.7-3.2zM233.9 149.6c1.7 2.2 3.5 4.4 5.3 6.5-1.9-2.2-3.6-4.3-5.3-6.5zM224 136c3.1 4.7 6.4 9.2 9.8 13.6-3.4-4.4-6.7-9-9.8-13.6zM220.6 130.7c.8 1.2 1.5 2.4 2.3 3.5-.8-1.2-1.6-2.4-2.3-3.5zM218.4 127.1c-.7-1.2-1.5-2.4-2.2-3.6.8 1.2 1.5 2.4 2.2 3.6zM213.2 117.9zM209.3 110.4l.9 1.8-.9-1.8zM201.5 93c.2.5.4 1.1.6 1.6-.1-.6-.3-1.1-.6-1.6z" class="st1"/><path d="M198.7 85.4c.3.8.6 1.7.9 2.5-.3-.8-.6-1.6-.9-2.5z" class="st2"/><path d="M194.8 73c.4 1.3.8 2.6 1.1 3.8-.4-1.3-.8-2.5-1.1-3.8zM193.4 68c-.3-1.1-.6-2.1-.8-3.2.2 1.1.5 2.1.8 3.2z" class="st1"/><path d="M191.7 61.1c.2.8.4 1.7.6 2.6-.2-.9-.4-1.7-.6-2.6zM191.1 58.4c.2.9.4 1.8.6 2.8-.2-1-.4-1.9-.6-2.8zM190.7 56.9l.3 1.5-.3-1.5z" class="st2"/><path d="M190.1 53.8c.2 1 .4 2.1.6 3.1-.2-1.1-.4-2.1-.6-3.1zM189.7 51.6c.1.7.3 1.4.4 2.1-.1-.6-.3-1.3-.4-2.1zM189.3 49.5c.1.7.3 1.4.4 2.1-.1-.7-.3-1.4-.4-2.1z" class="st1"/><path d="M188.1 41.7c.1.8.2 1.7.4 2.5-.2-.8-.3-1.7-.4-2.5z" class="st2"/><path d="M186.9 32.2c.1.7.1 1.4.2 2 0-.6-.1-1.3-.2-2z" class="st1"/><path d="M186.1 21.5c0 .9.1 1.7.1 2.6 0-.9 0-1.8-.1-2.6zM185.9 16.5c.1 1.7.1 3.3.2 5 0-1.7-.1-3.3-.2-5z" class="st2"/><path d="M185.9 15v0z" class="st1"/><path d="M185.9 12.7v0zM185.8 9.8v2.9c.1-1 0-2 0-2.9z" class="st2"/></g></g></g></svg>