<svg viewBox="0 0 256 256" xmlns="http://www.w3.org/2000/svg">
<g stroke="#000">
<path d="m-210.012,10.505h164.034a35.488,35.488 0 0,1 35.488,35.488v164.014a35.488,35.488 0 0,1 -35.488,35.488h-164.034a35.488,35.488 0 0,1 -35.488-35.488v-164.014a35.488,35.488 0 0,1 35.488-35.488" fill="#6bc1ff" fill-rule="evenodd" stroke-dasharray="0.5, 1" stroke-linecap="square" stroke-width=".5" transform="scale(-1,1)"/>
<path d="m68.362,125.52c0,11.964-9.274,21.662-20.715,21.662s-20.714-9.699-20.714-21.662 9.274-21.662 20.714-21.662 20.715,9.699 20.715,21.662zm155.718.48c0,11.964-9.274,21.662-20.715,21.662s-20.714-9.699-20.714-21.662 9.274-21.662 20.714-21.662 20.715,9.699 20.715,21.662z" fill="#fff" stroke-width="8"/>
<path d="m181.93,67.429c-15.654-6.425-31.604-14.038-43.571-5.715-13.857,6.381-13.196,27.28-12.143,48.572" fill="none" stroke-width="10"/>
<path d="m211.46,157.07c0,33.334-38.27,60.358-85.479,60.358s-85.479-27.023-85.479-60.358 38.271-60.357 85.479-60.357 85.479,27.022 85.479,60.357zm-1.67-86.427c0,10.848-8.154,19.643-18.214,19.643s-18.214-8.795-18.214-19.643 8.155-19.643 18.214-19.643 18.214,8.794 18.214,19.643z" fill="#fff" stroke-linecap="round" stroke-width="8"/>
</g>
<path d="m102.77,144.93c0,6.903-5.464,12.5-12.203,12.5s-12.202-5.597-12.202-12.5 5.463-12.5 12.202-12.5 12.203,5.596 12.203,12.5zm63.511-1.072c0,6.904-5.463,12.5-12.202,12.5s-12.202-5.596-12.202-12.5 5.463-12.5 12.202-12.5 12.202,5.597 12.202,12.5z" fill="#f00"/>
<path d="m89.79,178.14c27.11,19.15 47.543,11.599 67.143.714" fill="none" stroke="#000" stroke-linecap="round" stroke-width="10"/>
</svg>
