<svg xmlns="http://www.w3.org/2000/svg" viewBox="0 0 64 64"><title>Skype_64x</title><circle cx="21.5" cy="21.5" r="14.5" fill="#28a8ea"/><circle cx="42.5" cy="42.5" r="14.5" fill="#28a8ea"/><circle cx="32" cy="32" r="24" fill="#28a8ea"/><path d="M25.77592,31.54432a7.29374,7.29374,0,0,1-2.28723-2.415,6.67189,6.67189,0,0,1-.78349-3.3355,5.99471,5.99471,0,0,1,1.41226-4.03715A8.501,8.501,0,0,1,27.79893,19.296a14.21815,14.21815,0,0,1,4.82059-.81108,18.72034,18.72034,0,0,1,3.20766.24605,11.57926,11.57926,0,0,1,2.22351.57416,4.31175,4.31175,0,0,1,1.74061,1.11177,2.25009,2.25009,0,0,1,.53761,1.49465,2.1653,2.1653,0,0,1-.565,1.55841,1.88118,1.88118,0,0,1-1.42159.5924,2.559,2.559,0,0,1-1.057-.23707,19.13418,19.13418,0,0,0-2.51525-.92035,9.13,9.13,0,0,0-2.42384-.3007,5.53217,5.53217,0,0,0-3.0346.77456,2.52514,2.52514,0,0,0-1.21193,2.26921,2.28147,2.28147,0,0,0,.62869,1.59478,5.73381,5.73381,0,0,0,1.69507,1.21207q1.06626.52886,3.18023,1.40349a3.29562,3.29562,0,0,1,.45571.18231,22.58883,22.58883,0,0,1,3.9366,2.02313,7.93733,7.93733,0,0,1,2.424,2.4879,6.5598,6.5598,0,0,1,.87481,3.45388,6.94754,6.94754,0,0,1-1.21209,4.16482A7.20362,7.20362,0,0,1,36.693,44.6857a14.28813,14.28813,0,0,1-5.09406.82934,16.04982,16.04982,0,0,1-6.94368-1.31234,3.77906,3.77906,0,0,1-1.43069-1.11178,2.49947,2.49947,0,0,1-.4648-1.51289,1.97735,1.97735,0,0,1,.61043-1.54015,2.25168,2.25168,0,0,1,1.57647-.55589,4.02856,4.02856,0,0,1,1.8407.47386q1.05675.52889,1.66771.793a8.38192,8.38192,0,0,0,1.43986.4556,8.23265,8.23265,0,0,0,1.84963.19129,4.93708,4.93708,0,0,0,3.10757-.82919A2.73661,2.73661,0,0,0,35.9,38.29732a2.41166,2.41166,0,0,0-.656-1.65869,6.97453,6.97453,0,0,0-1.93178-1.40334q-1.276-.67429-3.59055-1.64043a22.24428,22.24428,0,0,1-3.94578-2.05054" fill="#fff" fill-rule="evenodd"/><path d="M26.03,7.73a14.15275,14.15275,0,0,0-1.94-.5A26.07514,26.07514,0,0,0,7.23,24.09a14.15918,14.15918,0,0,0,.5,1.94A10.98246,10.98246,0,0,0,8.4,27.7,23.94743,23.94743,0,0,1,27.7,8.4,10.9902,10.9902,0,0,0,26.03,7.73Z" fill-rule="evenodd" opacity="0.1"/><path d="M26.03,7.73a25.01918,25.01918,0,0,0-18.3,18.3A10.98246,10.98246,0,0,0,8.4,27.7,23.94743,23.94743,0,0,1,27.7,8.4,10.9902,10.9902,0,0,0,26.03,7.73Z" fill-rule="evenodd" opacity="0.1"/><path d="M56.27,37.97a10.98178,10.98178,0,0,0-.67-1.67A23.94736,23.94736,0,0,1,36.3,55.6a10.984,10.984,0,0,0,1.67.67,14.15275,14.15275,0,0,0,1.94.5A26.07514,26.07514,0,0,0,56.77,39.91,14.16142,14.16142,0,0,0,56.27,37.97Z" fill-rule="evenodd" opacity="0.1"/><path d="M55.6,36.3A23.94736,23.94736,0,0,1,36.3,55.6a10.984,10.984,0,0,0,1.67.67A25.01909,25.01909,0,0,0,56.27,37.97,10.98178,10.98178,0,0,0,55.6,36.3Z" fill-rule="evenodd" opacity="0.1"/></svg>