<svg xmlns="http://www.w3.org/2000/svg" xmlns:svg="http://www.w3.org/2000/svg" id="svg16" version="1.1" viewBox="0 0 64 64"><metadata id="metadata22"/><g id="g31" transform="matrix(1.1948022,0,0,1.1948022,-6.2336704,-6.2336704)"><circle id="circle2" cx="21.5" cy="21.5" r="14.5" fill="#28a8ea"/><circle id="circle4" cx="42.5" cy="42.5" r="14.5" fill="#28a8ea"/><circle id="circle6" cx="32" cy="32" r="24" fill="#28a8ea"/><path id="path8" fill="#fff" fill-rule="evenodd" d="m 25.776,31.544 a 7.294,7.294 0 0 1 -2.287,-2.415 6.672,6.672 0 0 1 -0.784,-3.335 5.995,5.995 0 0 1 1.412,-4.037 8.501,8.501 0 0 1 3.682,-2.461 14.218,14.218 0 0 1 4.82,-0.811 18.72,18.72 0 0 1 3.208,0.246 11.58,11.58 0 0 1 2.224,0.574 4.312,4.312 0 0 1 1.74,1.112 2.25,2.25 0 0 1 0.538,1.495 2.165,2.165 0 0 1 -0.565,1.558 1.881,1.881 0 0 1 -1.422,0.592 2.559,2.559 0 0 1 -1.057,-0.237 19.134,19.134 0 0 0 -2.515,-0.92 9.13,9.13 0 0 0 -2.424,-0.3 5.532,5.532 0 0 0 -3.034,0.774 2.525,2.525 0 0 0 -1.212,2.269 2.281,2.281 0 0 0 0.628,1.595 5.734,5.734 0 0 0 1.695,1.212 q 1.067,0.529 3.18,1.403 a 3.296,3.296 0 0 1 0.456,0.183 22.589,22.589 0 0 1 3.937,2.023 7.937,7.937 0 0 1 2.424,2.488 6.56,6.56 0 0 1 0.875,3.454 6.948,6.948 0 0 1 -1.212,4.164 7.204,7.204 0 0 1 -3.39,2.516 14.288,14.288 0 0 1 -5.094,0.829 16.05,16.05 0 0 1 -6.944,-1.312 3.78,3.78 0 0 1 -1.43,-1.112 2.5,2.5 0 0 1 -0.465,-1.513 1.977,1.977 0 0 1 0.61,-1.54 2.252,2.252 0 0 1 1.577,-0.556 4.029,4.029 0 0 1 1.84,0.474 q 1.057,0.529 1.668,0.793 a 8.382,8.382 0 0 0 1.44,0.455 8.233,8.233 0 0 0 1.85,0.192 4.937,4.937 0 0 0 3.107,-0.83 2.737,2.737 0 0 0 1.048,-2.269 2.412,2.412 0 0 0 -0.656,-1.658 6.975,6.975 0 0 0 -1.932,-1.404 q -1.276,-0.674 -3.59,-1.64 a 22.244,22.244 0 0 1 -3.946,-2.05"/><path id="path10" fill-rule="evenodd" d="M 26.03,7.73 A 14.153,14.153 0 0 0 24.09,7.23 26.075,26.075 0 0 0 7.23,24.09 14.16,14.16 0 0 0 7.73,26.03 10.982,10.982 0 0 0 8.4,27.7 23.947,23.947 0 0 1 27.7,8.4 10.99,10.99 0 0 0 26.03,7.73 Z" opacity=".1"/><path id="path12" fill-rule="evenodd" d="M 26.03,7.73 A 25.02,25.02 0 0 0 7.73,26.03 10.982,10.982 0 0 0 8.4,27.7 23.947,23.947 0 0 1 27.7,8.4 10.99,10.99 0 0 0 26.03,7.73 Z M 56.27,37.97 A 10.982,10.982 0 0 0 55.6,36.3 23.947,23.947 0 0 1 36.3,55.6 a 10.984,10.984 0 0 0 1.67,0.67 14.153,14.153 0 0 0 1.94,0.5 26.075,26.075 0 0 0 16.86,-16.86 14.161,14.161 0 0 0 -0.5,-1.94 z" opacity=".1"/><path id="path14" fill-rule="evenodd" d="M 55.6,36.3 A 23.947,23.947 0 0 1 36.3,55.6 10.984,10.984 0 0 0 37.97,56.27 25.02,25.02 0 0 0 56.27,37.97 10.982,10.982 0 0 0 55.6,36.3 Z" opacity=".1"/></g></svg>