<svg viewBox="0 0 240 240" xmlns="http://www.w3.org/2000/svg">
<defs>
<linearGradient id="b" x1=".6667" x2=".4167" y1=".1667" y2=".75">
<stop offset="0" stop-color="#37aee2"/>
<stop offset="1" stop-color="#1e96c8"/>
</linearGradient>
<linearGradient id="w" x1=".6597" x2=".8512" y1=".4369" y2=".8024">
<stop offset="0" stop-color="#eff7fc"/>
<stop offset="1" stop-color="#fff"/>
</linearGradient>
</defs>
<path d="m240,120a120,120 0 1,0 -240,0 120,120 0 1,0 240,0" fill="url(#b)"/>
<path d="m98,175c-3.8876,0-3.227-1.4679-4.5678-5.1695l-11.4322-37.6246 88-52.2059" fill="#c8daea"/>
<path d="m98,175c3,0 4.3255-1.372 6-3l16-15.558-19.958-12.035" fill="#a9c9dd"/>
<path d="m100.04,144.41 48.36,35.729c5.5185,3.0449 9.5014,1.4684 10.876-5.1235l19.685-92.763c2.0154-8.0802-3.0801-11.745-8.3594-9.3482l-115.59,44.571c-7.8901,3.1647-7.8441,7.5666-1.4382,9.528l29.663,9.2583 68.673-43.325c3.2419-1.9659 6.2173-.909 3.7752,1.2584" fill="url(#w)"/>
</svg>
