<svg viewBox="0 0 1024 1024" xmlns="http://www.w3.org/2000/svg"><path d="M702.77 799.58C680.56 823.3 629.09 839.4 583 840.16h-5.06c-154.84 0-188.47-113.84-188.47-180.29V475.26h-61a12.79 12.79 0 01-12.79-12.79v-87.18a21.72 21.72 0 0114.47-20.46c79.49-28 104.42-97.37 108.11-150.1 1-14.09 8.37-20.92 20.6-20.92h90.92a12.79 12.79 0 0112.79 12.79v147.65H669A12.79 12.79 0 01681.8 357v104.77a12.79 12.79 0 01-12.8 12.78H562.08v170.73c0 42.87 28.25 54.7 45.7 54.7 16.74-.4 33.22-5.5 41.48-8.82 6.13-2.46 11.52-4.09 16.34-2.88 4.49 1.12 7.44 4.3 9.43 10.1l28.21 82.4c2.29 6.6 4.26 13.75-.47 18.8z" fill="#39475d"/></svg>