<svg xmlns="http://www.w3.org/2000/svg" xmlns:svg="http://www.w3.org/2000/svg" id="svg4" version="1.1" viewBox="0 0 1024 1024"><metadata id="metadata10"/><path id="path2" fill="#39475d" d="m 805.98253,952.13205 c -33.98993,36.30081 -112.75902,60.94005 -183.29462,62.10315 h -7.74376 c -236.96534,0 -288.4323,-174.21941 -288.4323,-275.91371 v -282.525 H 233.15816 A 19.573668,19.573668 0 0 1 213.58449,436.22282 V 302.80356 a 33.240036,33.240036 0 0 1 22.14472,-31.31175 C 357.37979,228.64094 395.53237,122.4779 401.1795,41.780517 402.70988,20.217344 413.98885,9.7647905 432.7055,9.7647905 H 571.84842 A 19.573668,19.573668 0 0 1 591.42208,29.338459 V 255.3003 h 162.87923 a 19.573668,19.573668 0 0 1 19.58897,19.51245 v 160.33879 a 19.573668,19.573668 0 0 1 -19.58897,19.55837 H 590.67219 v 261.28321 c 0,65.60775 43.23347,83.71225 69.93875,83.71225 25.6187,-0.61216 50.8395,-8.41715 63.48051,-13.49803 9.38129,-3.76476 17.63008,-6.25929 25.00655,-4.40751 6.87144,1.71402 11.38609,6.58066 14.43156,15.45691 l 43.17226,126.104 c 3.50458,10.10057 6.51945,21.04285 -0.71929,28.77131 z" style="stroke-width:1.53038"/></svg>