<svg xmlns="http://www.w3.org/2000/svg" xmlns:svg="http://www.w3.org/2000/svg" id="svg4" width="341.738" height="341.738" version="1.1" viewBox="0 0 341.738 341.738"><metadata id="metadata10"/><path id="path2" fill="#6babe1" d="m 107.4745,309.7295 c -39.594997,0 -76.444997,-11.607 -107.4749967041,-31.5 5.4850000041,0.65 11.0659997041,0.98 16.7249997041,0.98 32.847,0 63.08,-11.21 87.073997,-30.013 -30.679997,-0.566 -56.573997,-20.836 -65.494997,-48.69 a 70.083,70.083 0 0 0 13.19,1.256 c 6.395,0 12.59,-0.856 18.473,-2.458 -32.074,-6.44 -56.242,-34.778 -56.242,-68.748 0,-0.296 0,-0.588 0.006,-0.88 a 69.83,69.83 0 0 0 31.756,8.768 c -18.812,-12.573 -31.19,-34.033 -31.19,-58.355997 0,-12.85 3.457,-24.894 9.492,-35.25 34.58,42.42 86.239997,70.329997 144.511997,73.254997 a 70.387,70.387 0 0 1 -1.816,-15.978 c 0,-38.717997 31.393,-70.109997 70.114,-70.109997 20.165,0 38.386,8.515 51.176,22.142 a 140.382,140.382 0 0 0 44.52,-17.016 c -5.233,16.372 -16.35,30.112 -30.826,38.79 14.182,-1.695 27.695,-5.464 40.27,-11.04 -9.4,14.06 -21.29,26.408 -34.986,36.292997 0.135,3.007 0.202,6.03 0.202,9.07 0,92.65 -70.52,199.488 -199.475,199.488"/></svg>