<svg viewBox="0 0 192 192" xmlns="http://www.w3.org/2000/svg">
<g fill="none">
<path d="m66.56,0h58.88c53.76,0 66.56,12.8 66.56,66.56v58.88c0,53.76-12.8,66.56-66.56,66.56h-58.88c-53.76,0-66.56-12.8-66.56-66.56v-58.88c0-53.76 12.8-66.56 66.56-66.56z" fill="#5181b8"/>
<path d="m157.234,66.1462c.8896-2.9664 0-5.1462-4.2337-5.1462h-14c-3.5597,0-5.2008,1.883-6.0909,3.9594 0,0-7.1195,17.3535-17.2052,28.6258-3.263,3.263-4.7463,4.3012-6.5262,4.3012-.8898,0-2.178-1.0382-2.178-4.0044v-27.7357c0-3.5597-1.0331-5.1462-3.9998-5.1462h-22c-2.2245,0-3.5624,1.6522-3.5624,3.218 0,3.3746 5.0426,4.1528 5.5624,13.6454v20.6165c0,4.5201-.8163,5.3396-2.5962,5.3396-4.7461,0-16.2909-17.4311-23.1381-37.3768-1.3419-3.8768-2.6878-5.4427-6.2658-5.4427h-14c-4,0-4.8,1.883-4.8,3.9594 0,3.7081 4.7463,22.0999 22.0996,46.4243 11.5688,16.6116 27.8684,25.6164 42.7004,25.6164 8.8991,0 10-2 10-5.445v-12.555c0-4 .843-4.7983 3.6611-4.7983 2.0764,0 5.6361,1.0382 13.9422,9.0475 9.4924,9.4924 11.0573,13.7508 16.3967,13.7508h14c4,0 6-2 4.8462-5.9469-1.2626-3.9337-5.7947-9.641-11.8084-16.4065-3.2632-3.8563-8.1577-8.009-9.641-10.0859-2.0764-2.6694-1.4831-3.8563 0-6.2292 0,0 17.057-24.0279 18.8369-32.1853z" fill="#fff"/>
</g>
</svg>
