<svg xmlns="http://www.w3.org/2000/svg" viewBox="0 0 87 98"><g fill="#232b2b"><path d="M2.481 22.231v-8.57l80.647-.015.016 8.57zM82.416 57.203l-.491 14.859-.07 10.009-1.374.397h-4.796l-1.442-.397-.566-10.009-.487-14.774V45.375l.487-12.466.436-7.668.998-.43h5.37l.959.472.473 7.626.503 12.385zM60.084 57.212l-.473 14.854-.087 10.009-1.357.392h-4.811l-1.45-.392-.573-10.01-.472-14.769V45.384l.472-12.471.451-7.664.999-.439h5.37l.96.482.487 7.616.484 12.385zM34.021 57.212l-.48 14.854-.078 10.004-1.357.397-4.808.005-1.444-.397-.56-10.01-.484-14.769V45.38l.478-12.471.436-7.659 1.006-.439h5.362l.96.477.483 7.621.486 12.39zM12.945 57.203l-.486 14.854-.075 10.01-1.359.396H6.216l-1.442-.392-.565-10.014-.487-14.769v-11.91l.484-12.469.439-7.668.999-.43h5.374l.959.472.477 7.626.484 12.38zM2.481 85.614l80.66-.02v5.722l-80.66.02zM82.312 12.462l-80.628.015L0 9.536 41.994 0l41.997 9.517zM86.461 97.33L0 97.346v-4.293l86.461-.014z"/></g></svg>