<svg viewBox="0 0 87 98" xmlns="http://www.w3.org/2000/svg">
<title>Group</title>
<desc>Created with Sketch.</desc>
<g fill="none">
<g fill="#232b2b">
<g id="Group">
<path d="m2.481,22.2313v-8.5712l80.6474-.0145 .0159,8.5712z"></path>
<path d="m82.4157,57.2034-.4909,14.8586-.0696,10.009-1.3738.397h-4.7967l-1.4422-.397-.5654-10.009-.4872-14.7739v-11.9128l.4872-12.4659 .436-7.6684 .9977-.4309h5.3706l.9586.4732 .4726,7.626 .5031,12.3848z"></path>
<path d="m60.0841,57.2118-.4726,14.8538-.0879,10.009-1.3567.3921h-4.8113l-1.4495-.3921-.5727-10.009-.4726-14.7691v-11.9128l.4726-12.4708 .4506-7.6635 .9989-.4393h5.3694l.961.4817 .4872,7.6163 .4836,12.3848z"></path>
<path d="m34.0213,57.2118-.4799,14.8538-.0782,10.0042-1.3567.397-4.8089.0048-1.4434-.397-.5593-10.009-.4848-14.7691v-11.9177l.4775-12.4708 .436-7.6587 1.0062-.4393h5.3621l.961.4769 .4824,7.6212 .486,12.3897z"></path>
<path d="m12.9449,57.2034-.486,14.8538-.0745,10.009-1.3591.397h-4.8089l-1.4422-.3921-.5654-10.0139-.4872-14.7691v-11.9092l.4848-12.4695 .4384-7.6684 .9989-.4309h5.3743l.9586.4732 .4775,7.626 .4836,12.38z"></path>
<path d="m2.481,85.6143 80.6608-.0194v5.721l-80.6608.0194z"></path>
<path d="m82.3118,12.4623-80.6278.0145-1.684-2.941 41.9942-9.5358 41.9967,9.5165z"></path>
<path d="m86.4613,97.3308-86.4613.0145v-4.2929l86.4613-.0145z"></path>
</g>
</g>
</g>
</svg>
