<svg xmlns="http://www.w3.org/2000/svg" xmlns:svg="http://www.w3.org/2000/svg" id="svg6" width="98" height="98" version="1.1" viewBox="0 0 98 98"><metadata id="metadata12"/><g id="g4" fill="#232b2b" transform="translate(5.7695,0.327)"><path id="path2" d="m 2.481,22.231 v -8.57 l 80.647,-0.015 0.016,8.57 z m 79.935,34.972 -0.491,14.859 -0.07,10.009 -1.374,0.397 H 75.685 L 74.243,82.071 73.677,72.062 73.19,57.288 V 45.375 l 0.487,-12.466 0.436,-7.668 0.998,-0.43 h 5.37 l 0.959,0.472 0.473,7.626 0.503,12.385 z m -22.332,0.009 -0.473,14.854 -0.087,10.009 -1.357,0.392 H 53.356 L 51.906,82.075 51.333,72.065 50.861,57.296 V 45.384 l 0.472,-12.471 0.451,-7.664 0.999,-0.439 h 5.37 l 0.96,0.482 0.487,7.616 0.484,12.385 z m -26.063,0 -0.48,14.854 -0.078,10.004 -1.357,0.397 -4.808,0.005 -1.444,-0.397 -0.56,-10.01 L 24.81,57.296 V 45.38 l 0.478,-12.471 0.436,-7.659 1.006,-0.439 h 5.362 l 0.96,0.477 0.483,7.621 0.486,12.39 z m -21.076,-0.009 -0.486,14.854 -0.075,10.01 -1.359,0.396 H 6.216 L 4.774,82.071 4.209,72.057 3.722,57.288 v -11.91 l 0.484,-12.469 0.439,-7.668 0.999,-0.43 h 5.374 l 0.959,0.472 0.477,7.626 0.484,12.38 z m -10.464,28.411 80.66,-0.02 v 5.722 l -80.66,0.02 z M 82.312,12.462 1.684,12.477 0,9.536 41.994,0 83.991,9.517 Z M 86.461,97.33 0,97.346 v -4.293 l 86.461,-0.014 z"/></g></svg>