<svg xmlns="http://www.w3.org/2000/svg" enable-background="new 0 0 512 512" viewBox="0 0 512 512" xml:space="preserve"><path fill="#8dc63f" d="m378.853,294.202c-.997-.479-38.324-18.859-44.956-21.246-2.708-.972-5.609-1.922-8.694-1.922-5.04,0-9.274,2.512-12.572,7.446-3.729,5.542-15.016,18.736-18.503,22.678-.456.52-1.077,1.142-1.45,1.142-.334,0-6.111-2.379-7.86-3.138-40.041-17.393-70.433-59.219-74.601-66.272-.595-1.014-.62-1.474-.625-1.474 .146-.537 1.493-1.887 2.188-2.583 2.033-2.011 4.236-4.663 6.367-7.228 1.009-1.215 2.02-2.432 3.012-3.579 3.092-3.597 4.468-6.39 6.064-9.625l.836-1.681c3.897-7.742.569-14.274-.507-16.384-.883-1.765-16.643-39.803-18.319-43.799-4.03-9.643-9.354-14.133-16.753-14.133-.687,0 0,0-2.879.121-3.506.148-22.598,2.661-31.039,7.983-8.952,5.644-24.096,23.633-24.096,55.271 0,28.474 18.07,55.359 25.828,65.584 .193.258.547.781 1.061,1.533 29.711,43.39 66.75,75.547 104.297,90.546 36.148,14.439 53.265,16.108 62.996,16.108h.002c4.089,0 7.362-.321 10.25-.605l1.832-.175c12.487-1.107 39.929-15.327 46.171-32.673 4.917-13.663 6.214-28.591 2.942-34.008-2.241-3.686-6.103-5.54-10.992-7.887z"/><path fill="#8dc63f" d="m260.545,0c-138.666,0-251.479,111.965-251.479,249.588 0,44.512 11.912,88.084 34.479,126.218l-43.193,127.41c-.805,2.375-.206,5.002 1.551,6.791 1.269,1.295 2.989,1.993 4.746,1.993 .673,0 1.351-.101 2.013-.313l132.854-42.217c36.355,19.424 77.445,29.678 119.03,29.678 138.653.002 251.454-111.951 251.454-249.56 0-137.623-112.801-249.588-251.455-249.588zm0,447.159c-39.13,0-77.029-11.299-109.608-32.677-1.095-.72-2.367-1.089-3.647-1.089-.677,0-1.355.103-2.015.313l-66.552,21.155 21.484-63.383c.695-2.051.347-4.314-.933-6.063-24.809-33.898-37.923-73.949-37.923-115.827 0-108.955 89.357-197.597 199.191-197.597 109.821,0 199.168,88.642 199.168,197.597 .003,108.942-89.343,197.571-199.165,197.571z"/></svg>