<svg clip-path="url(#presentation_clip_path)" fill-rule="evenodd" height="143.7538" preserveAspectRatio="xMidYMid" viewBox="0 0 5644.4442 4057.0515" width="200" xml:space="preserve" xmlns="http://www.w3.org/2000/svg" xmlns:ooo="http://xml.openoffice.org/svg/export"><defs class="ClipPathGroup">

  <g transform="scale(4.8828125e-4,-4.8828125e-4)">
   <path d="m580,1141 583-570-583-571-584,571 584,570z"/>
  </g>
  <g transform="scale(4.8828125e-4,-4.8828125e-4)">
   <path d="m8,1128h1129v-1128h-1129v1128z"/>
  </g>
  <g transform="scale(4.8828125e-4,-4.8828125e-4)">
   <path d="m174,0 428,739-428,742 1282-742-1282-739zm1184,739-1049,607 350-607h699z"/>
  </g>
  <g transform="scale(4.8828125e-4,-4.8828125e-4)">
   <path d="m2015,739-739-739h-559l543,543h-1086v393h1086l-543,545h557l741-742z"/>
  </g>
  <g transform="scale(4.8828125e-4,-4.8828125e-4)">
   <path d="m0-2c-7,16-16,29-25,39l381,530c-94,256-141,385-141,387 0,25 13,38 40,38 9,0 21-2 34-5 21,4 42,12 65,25l27-13 111-251 280,301 64-25 24,25c21-10 41-24 62-43-36-69-87-143-152-222-1-1-60-68-176-200l180-361c0-27-21-55-63-84l16-20c-10-29-28-43-55-43-31,0-102,102-215,305l-293-457c-22-34-53-51-92-51-42,0-63,17-64,51-7,9-10,24-10,44 0,9 1,19 2,30z"/>
  </g>
  <g transform="scale(4.8828125e-4,-4.8828125e-4)">
   <path d="m285-33c-103,0-174,63-211,189-22,72-33,177-33,315 0,78 14,145 41,201 34,71 87,106 158,106 53,0 88-31 106-94l23-176c8-64 28-97 59-98l735,706c11,11 33,17 66,17 42,0 63-15 63-46v-122c0-36-10-64-30-84l-820-834c-52-53-104-80-157-80z"/>
  </g>
  <g transform="scale(4.8828125e-4,-4.8828125e-4)">
   <path d="m813,0c-181,0-324,54-430,161-107,107-160,250-160,431s53,324 160,431c106,107 249,161 430,161 179,0 323-54 432-161 108-107 162-251 162-431s-54-324-162-431c-109-107-253-161-432-161z"/>
  </g>
  <g transform="scale(4.8828125e-4,-4.8828125e-4)">
   <path d="m346,457c-73,0-137,26-191,78-54,51-81,114-81,188 0,73 27,136 81,188s118,78 191,78 134-26 185-79c51-51 77-114 77-187 0-75-25-137-76-188-50-52-112-78-186-78z"/>
  </g>
  <g transform="scale(4.8828125e-4,-4.8828125e-4)">
   <path d="m-4,459h1139v147h-1139v-147z"/>
  </g>
 <clipPath>
   <path d="m0,0h20000v20000h-20000z"/>
  </clipPath></defs>
 <g transform="translate(-11027.183,-3706.8291)">
  <g class="Master_Slide">
  </g>
 </g>
 <g transform="matrix(.34329,0,0,.34329,-617.93,-1407.1632)"><path d="m7898,4099c3457,0 6098,2558 6098,5908s-2641,5909-6098,5909-6098-2559-6098-5909 2641-5908 6098-5908zm-6098,0zm12197,11818z" fill="#6b0094"/><g class="com.sun.star.drawing.ClosedBezierShape">
        <path d="m7636,7981c14-205 29-409 58-613h-4639v613c466,29 919,73 1386,102 875,1065 1750,2130 2640,3209v1649c-496,44-992,73-1488,117v539h4581v-539c-496-30-992-44-1488-59 15-583 29-1181 44-1765 860-759 1707-1517 2553-2276 437-29 875-58 1327-102v-715c-1298,15-2582,29-3880,58v599c481,29 963,43 1444,58-627,540-1255,1065-1882,1605-642-788-1284-1590-1926-2378 423-44 846-73 1270-102z" fill="#fff"/>
      </g><g class="com.sun.star.drawing.ClosedBezierShape">
        <path d="m18242,4684c-1182-59-2349-117-3516-176-59,2787-117,5588-175,8375 554,58 1123,116 1677,175 671-2801 1343-5588 2014-8374zm-3852,11218h2013v-1677c-729-59-1458-117-2188-175 58,627 117,1240 175,1852z" fill="#6b0094"/>
      </g></g>
</svg>
