<svg clip-path="url(#presentation_clip_path)" fill-rule="evenodd" height="143.754" preserveAspectRatio="xMidYMid" viewBox="0 0 5644.444 4057.052" width="200" xmlns="http://www.w3.org/2000/svg"><path d="M2093.374-.017c1186.754 0 2093.383 878.135 2093.383 2028.157s-906.629 2028.5-2093.383 2028.5S-.008 3178.161-.008 2028.14 906.621-.017 2093.374-.017zM-.008-.017zm4187.108 4057z" fill="#6b0094"/><path d="M2003.432 1332.634c4.807-70.374 9.956-140.405 19.911-210.436H430.821v210.436c159.973 9.956 315.483 25.06 475.8 35.016 300.379 365.604 600.757 731.208 906.285 1101.617v566.086c-170.271 15.104-340.543 25.06-510.815 40.165v185.033h1572.611v-185.033c-170.271-10.3-340.543-15.105-510.815-20.254 5.15-200.139 9.955-405.426 15.105-605.907 295.23-260.557 585.996-520.771 876.42-781.328 150.017-9.956 300.378-19.911 455.545-35.016v-245.452c-445.59 5.149-886.375 9.955-1331.965 19.91v205.631c165.122 9.956 330.588 14.762 495.71 19.911-215.242 185.377-430.828 365.604-646.071 550.98-220.392-270.512-440.785-545.83-661.177-816.343 145.212-15.105 290.423-25.06 435.978-35.016z" fill="#fff"/><path d="M5644.366 200.807c-405.769-20.254-806.388-40.165-1207.007-60.419-20.255 956.75-40.165 1918.305-60.076 2875.054 190.182 19.91 385.514 39.822 575.697 60.076 230.348-961.556 461.039-1918.305 691.386-2874.71zM4322.013 4051.834h691.043v-575.697c-250.259-20.254-500.517-40.165-751.119-60.076 19.911 215.243 40.165 425.68 60.076 635.773z" fill="#6b0094"/></svg>